<svg id="uni_logo_svg" data-name="Uni Logo SVG" xmlns="http://www.w3.org/2000/svg" viewBox="0 0 388.71 86.39" preserveAspectRatio="true"><defs><style>.cls-1{fill:#243588;}.cls-2{fill:#fff;}.cls-3{fill:#e41b13;}.cls-4{fill:#f9b122;}.cls-5{fill:#95c11f;}.cls-6{fill:#fbd9cd;}.cls-7{fill:#1d1d1b;}</style></defs><title>The University of Aberdeen</title><path class="cls-1" d="M111,77.85,97.88,43.27H86.05l1.68,1.26a2.26,2.26,0,0,1,1.16,1.91,7.73,7.73,0,0,1-.67,2.74L76.75,78.26c-1.24,3.13-2.35,4.84-3.84,5.87L71.09,85.4H84.67L83.4,84.2c-1.08-1-1.58-1.78-1.58-2.37a6,6,0,0,1,.49-2.38L86,70.14h14.24l3.48,9.4a7.29,7.29,0,0,1,.64,2.51c0,.5-.46,1-1.55,2.16l-1.12,1.18H116.9l-1.45-1.23A13.94,13.94,0,0,1,111,77.85ZM88.22,64.66l5.19-13.08L98.2,64.66Z"/><path class="cls-1" d="M145.64,60.75c3.32-2,5-4.62,5-7.76,0-6-5.38-9.71-14-9.71H120.86l1.42,1.23c2,1.75,2.16,3.67,2.16,6.62V77.49c0,3-.15,4.88-2.17,6.69L120.9,85.4h14.93c11.36,0,18.42-5.19,18.42-13.56C154.25,66.61,151.28,62.8,145.64,60.75ZM137,79.62c-1.06,0-2.65-.15-4.65-.35V65.17a30.37,30.37,0,0,1,4.46-.43c5.56,0,9.45,3.19,9.45,7.77S142.78,79.62,137,79.62Zm-2-19.94a21.79,21.79,0,0,1-2.6-.15V48.87a18.58,18.58,0,0,1,3.56-.41c4.21,0,6.63,2,6.63,5.42C142.52,57.56,139.75,59.68,134.93,59.68Z"/><path class="cls-1" d="M176.69,79.43a49.82,49.82,0,0,1-6.75-.62V65.52h3c2.93,0,4.78.06,5.77,1.25l1.24,1.49V59.68h-10V49.47a28,28,0,0,1,5.37-.65,10.85,10.85,0,0,1,7,2.08l1.13.86V43.27H158.53l1.42,1.23c2,1.75,2.16,3.67,2.16,6.62V77.49c0,3-.15,4.88-2.17,6.69l-1.37,1.22h27.08L189.33,75l-1.74,1.15A19,19,0,0,1,176.69,79.43Z"/><path class="cls-1" d="M224.5,78.39l-10-13.4c6-2.65,8.74-6.06,8.74-10.68,0-6.6-5.69-11-14.16-11h-16l1.42,1.23c2,1.75,2.16,3.67,2.16,6.62V77.49c0,3-.15,4.88-2.17,6.69L193.1,85.4h14.84l-1.37-1.22c-2-1.81-2.17-3.73-2.17-6.69V63.23l12.67,17.5a10.6,10.6,0,0,0,8.5,4.56l5.39-.28-1.25-1.12A38.85,38.85,0,0,1,224.5,78.39ZM204.4,63.08V49a23.64,23.64,0,0,1,3.75-.42c4.25,0,7.11,2.52,7.11,6.27,0,4-3.05,6.52-9.9,8Z"/><path class="cls-1" d="M265.89,48.18c-5.09-4.07-10.39-4.9-16.78-4.9H233.05l1.42,1.23c2,1.73,2.1,3.65,2.1,6.62V77.49c0,3-.1,4.89-2.11,6.69L233.1,85.4h14.09c10.08,0,16-2,20.58-7a21,21,0,0,0,5.53-14.71A19,19,0,0,0,265.89,48.18Zm-.6,16c0,9-6.3,15.52-15,15.52a43.47,43.47,0,0,1-5.91-.56V49.63a23.19,23.19,0,0,1,5.48-.69C259.24,48.94,265.29,54.94,265.29,64.22Z"/><path class="cls-1" d="M295.44,79.43a49.91,49.91,0,0,1-6.75-.62V65.52h3c2.93,0,4.78.06,5.77,1.25l1.24,1.49V59.68h-10V49.47a28,28,0,0,1,5.36-.65,10.85,10.85,0,0,1,7,2.08l1.13.86V43.27H277.28l1.42,1.23c2,1.75,2.16,3.67,2.16,6.62V77.49c0,3-.15,4.88-2.17,6.69l-1.37,1.22H304.4L308.09,75l-1.74,1.15A19,19,0,0,1,295.44,79.43Z"/><path class="cls-1" d="M330,79.43a48.94,48.94,0,0,1-6.75-.62V65.52h3c2.93,0,4.78.06,5.76,1.25l1.24,1.49V59.68h-10V49.47a27.94,27.94,0,0,1,5.37-.65,10.85,10.85,0,0,1,7,2.08l1.13.86V43.27H311.8l1.42,1.23c2,1.75,2.16,3.67,2.16,6.62V77.49c0,3-.15,4.88-2.17,6.69l-1.37,1.22h27.08L342.61,75l-1.74,1.15A18.94,18.94,0,0,1,330,79.43Z"/><path class="cls-1" d="M375.71,43.27l1.42,1.23c2,1.75,2.16,3.67,2.16,6.62V72.53l-23-29.26H345.73l1.42,1.23c2,1.75,2.16,3.67,2.16,6.62V77.49c0,3-.15,4.88-2.17,6.69l-1.37,1.22H358.7l-1.37-1.22c-2-1.79-2.11-3.71-2.11-6.69V54.75L375,79.67c2.91,3.71,5.45,6.56,9.42,6.7l.72,0V51.13c0-3,.15-4.88,2.16-6.62l1.42-1.23Z"/><path class="cls-1" d="M104.53,26.49C102.62,29,99.05,30.05,96,30.05a10.68,10.68,0,0,1-7.87-3c-2.3-2.52-2.22-5.44-2.22-8.57V6.83c0-2,.3-5.13-1.91-6V.74h8.26V.88c-2.17.83-1.91,4-1.91,6V18.44c0,5.78,2.44,8.48,6.92,8.48a7.69,7.69,0,0,0,6.35-3c1-1.3.91-2.39.91-4V6.83c0-2,.26-5.13-1.91-6V.74h8.26l0,.13c-2.22.83-2,4-2,6v16.4c0,2-.26,5.13,2,6v.13h-6.39Z"/><path class="cls-1" d="M121,23.71c0,2.44,0,4.17,2.26,5.52v.13h-7.7v-.13c2.3-1.35,2.3-3.09,2.3-5.52V6.35c0-2.44,0-4.17-2.26-5.48V.74h6.35v0a2.69,2.69,0,0,0,.65,1.09l.61.87,15.92,20.09V6.35c0-2.44,0-4.17-2.26-5.48V.74h7.65V.88c-2.26,1.3-2.26,3-2.26,5.48v24.4c-3.09-1-4.44-2.48-6.35-5L121,6.88Z"/><path class="cls-1" d="M150.6,6.88c0-2,.3-5.17-1.91-6V.74H157V.88c-2.17.83-1.91,4-1.91,6v16.4c0,2-.26,5.13,1.91,6v.13h-8.26v-.13c2.17-.78,1.91-4,1.91-6Z"/><path class="cls-1" d="M180.54,8.62c1.17-3.09,2.65-6.65,0-7.74V.74H187L175.5,30.66c-3-2-4-2.35-5.31-5.78L163.62,7.09c-.83-2.22-1.48-4.74-3.39-6.22V.74h6.35l0,.52a17.76,17.76,0,0,0,1.17,4l6.91,18.92Z"/><path class="cls-1" d="M197.26,25.71l5.52.52a10.84,10.84,0,0,0,8-2.57H211l-2,5.7H190.87v-.13c2.22-.78,2-4,2-6V6.88c0-2,.26-5.17-2-6V.74h13.92a4.43,4.43,0,0,0,2-.22H207V5.62h-.13C205.48,4,203.7,3.88,201.7,3.88a24.54,24.54,0,0,0-4.44.3v8.09h5.18a4.45,4.45,0,0,0,1.91-.26h.13v4.61h-.13c-.7-1.26-2.52-1.22-3.87-1.22h-3.22Z"/><path class="cls-1" d="M224.14.74c5.83,0,9,3,9,7s-3.35,6.83-6.91,7.65l6.26,7.87a30.51,30.51,0,0,0,7,6.09h-4a5.71,5.71,0,0,1-5-2.17l-5.31-6.57-4-6.13c3.48-.52,7.52-2.13,7.52-6.22,0-3.13-2.7-5-5.61-4.83a22.93,22.93,0,0,0-3,.35V23.27c0,2-.26,5.17,2,6v.13h-8.3v-.13c2.22-.78,1.91-4,1.91-6V6.88c0-2,.3-5.17-1.91-6V.74Z"/><path class="cls-1" d="M258.36,5.92a9.9,9.9,0,0,0-6.83-2.74c-2.48,0-5.61,1-5.61,4,0,6,15,5.87,15,13.92,0,4.65-4.87,9-11.65,9a22.53,22.53,0,0,1-7.79-1.3l-1.26-5.44a15,15,0,0,0,9.52,3.61c2.48,0,6.22-1.48,6.22-4.52,0-6.78-15-5.57-15-14.79C241,2.14,246.57,0,251.88,0a21.87,21.87,0,0,1,6.48,1Z"/><path class="cls-1" d="M266.54,6.88c0-2,.3-5.17-1.91-6V.74h8.26V.88c-2.17.83-1.91,4-1.91,6v16.4c0,2-.26,5.13,1.91,6v.13h-8.26v-.13c2.17-.78,1.91-4,1.91-6Z"/><path class="cls-1" d="M289.33,23.71c0,2.48,0,4.17,2.26,5.52v.13H283v-.13c2.18-.83,1.91-4,1.91-6V3.88h-3.83a7.55,7.55,0,0,0-5.18,1.74h-.13L277.29.44h.13a7,7,0,0,0,1.65.3h17.31a4.84,4.84,0,0,0,2-.3h.13l-1.39,5.17H297c-.57-1.52-2.3-1.74-3.74-1.74h-3.91Z"/><path class="cls-1" d="M316.26,23.71c0,2.61,0,3.91,2.22,5.52v.13H310v-.13c2.13-1.09,1.83-3.91,1.83-6V16.84L304.6,5.22c-1.17-1.91-2-3.35-4.13-4.48h4c1.39,0,2.7.3,3.26,1.22l7,11.35L320,5.22c.74-1.09,1.74-3.17-.7-4.35V.74H327l-10.7,16.09Z"/><path class="cls-1" d="M368.56,14.75c0,8.87-7.35,15.31-16,15.31S336.68,23.88,336.68,15c0-8.26,7.18-15.18,16.31-15C362.12,0,368.56,6.92,368.56,14.75Zm-26.92-.17c0,6.09,4.31,12.35,11.13,12.35,6.61,0,10.83-4.83,10.83-11.31s-4-12.48-10.92-12.48S341.64,8,341.64,14.57Z"/><path class="cls-1" d="M378.44,23.27c0,2-.35,5.13,1.83,6v.13H372v-.13c2.22-.78,2-4,2-6V6.88c0-2,.26-5.17-2-6V.74H386a4.44,4.44,0,0,0,2-.22h.13v5H388c-1.35-1.52-3.13-1.7-5.13-1.7a24.54,24.54,0,0,0-4.44.3v8.09h5.22a4.36,4.36,0,0,0,1.87-.26h.13v4.61h-.13c-.7-1.3-2.52-1.22-3.87-1.22h-3.22Z"/><path class="cls-2" d="M71.6,1.13V.75H0v.38S0,38,0,44C0,57.92,12.27,72.63,34.53,85.46l1.28.83,1.33-.81C59.39,72.68,71.64,58,71.64,44,71.64,38,71.6,1.13,71.6,1.13Z"/><path class="cls-3" d="M35.81,85.84c0-.38,0-25.47,0-49.2,0-.06,35.43,0,35.43,0,0,2.73,0,6.22,0,7.54,0,23.48-35.22,41.06-35.41,41.65"/><rect class="cls-4" x="47.55" y="1.43" width="5.79" height="13.66"/><rect class="cls-3" x="53.34" y="1.43" width="5.79" height="13.66"/><rect class="cls-4" x="59.13" y="1.43" width="5.93" height="13.66"/><rect class="cls-3" x="65.06" y="1.43" width="5.97" height="13.66"/><rect class="cls-3" x="41.8" y="1.43" width="5.74" height="13.66"/><rect class="cls-4" x="35.99" y="1.43" width="5.82" height="13.63"/><rect class="cls-1" x="0.42" y="1.13" width="35.41" height="35.5"/><polyline class="cls-2" points="43.74 40.83 43.74 39.81 44.24 39.81 44.24 40.39 44.74 40.39 44.74 39.81 45.26 39.81 45.26 40.39 45.76 40.39 45.76 39.82 46.2 39.82 46.2 40.83 43.74 40.83"/><polyline class="cls-2" points="47.38 40.8 47.38 39.78 47.88 39.78 47.88 40.36 48.37 40.36 48.37 39.78 48.9 39.78 48.9 40.36 49.4 40.36 49.4 39.79 49.84 39.79 49.84 40.8 47.38 40.8"/><polyline class="cls-2" points="50.92 40.77 50.92 39.75 51.42 39.75 51.42 40.33 51.92 40.33 51.92 39.75 52.44 39.75 52.44 40.33 52.94 40.33 52.94 39.76 53.38 39.76 53.38 40.77 50.92 40.77"/><polyline class="cls-2" points="44.34 47.59 42.87 57.36 54.34 57.36 52.84 47.59 44.34 47.59"/><polyline class="cls-2" points="42.75 46.29 42.75 43.54 54.47 43.53 54.47 46.27 52.84 47.59 44.34 47.59 42.75 46.29"/><polyline class="cls-2" points="40.73 59.37 40.73 65.55 56.35 65.55 56.35 59.43 54.29 57.36 42.81 57.36 40.73 59.37"/><polyline class="cls-2" points="43.74 43.4 44.03 41.66 43.74 40.83 46.2 40.83 45.91 41.66 46.2 43.4 43.74 43.4"/><polyline class="cls-2" points="47.36 43.4 47.65 41.67 47.38 40.8 49.84 40.8 49.52 41.67 49.81 43.4 47.36 43.4"/><polyline class="cls-2" points="50.91 43.38 51.2 41.65 50.92 40.77 53.38 40.77 53.09 41.65 53.37 43.38 50.91 43.38"/><path class="cls-2" d="M43.74,43.4h.88v-.84c.07-.57.66-.58.72,0v.84h.86l-.29-1.74H44Z"/><path class="cls-2" d="M47.36,43.4h.88v-.84c.07-.57.66-.58.72,0v.84h.85l-.29-1.74H47.64Z"/><path class="cls-2" d="M50.91,43.39h.88v-.84c.07-.57.66-.58.72,0v.84h.85l-.29-1.74H51.2Z"/><path class="cls-4" d="M18.06,23.29h2.31c-.53,1-1,1.91,0,3.27s4.25,5,.08,8.59H18"/><path class="cls-4" d="M18.06,23.29H15.75c.52,1,1,1.91,0,3.26s-4.26,5-.11,8.59H18"/><path class="cls-4" d="M23.51,29.89a2.08,2.08,0,0,1-.1-2.4c.45-1,2.54-3.3,1.66-5.09a2.46,2.46,0,0,0-4.2-.48,1.94,1.94,0,0,0,0,1.84,1.08,1.08,0,0,0,1.1.44.71.71,0,0,0,.55-.84A.9.9,0,0,0,22,22.8a1.28,1.28,0,0,0-.5.15.93.93,0,0,1,.28-.89,1.37,1.37,0,0,1,1.41-.29,1.88,1.88,0,0,1,1.26,2c-.22.65-.32,1.36-2.32,2.2a1,1,0,0,0,1,.32c-.92,1.47-1.42,3,.06,4.65a.95.95,0,0,0,1.44-1.22.77.77,0,0,0-.81-.18,1,1,0,0,0-.27.34"/><path class="cls-4" d="M12.55,29.88a2.08,2.08,0,0,0,.13-2.4c-.44-1-2.51-3.32-1.61-5.11a2.46,2.46,0,0,1,4.2-.44,1.93,1.93,0,0,1,0,1.84,1.08,1.08,0,0,1-1.11.43.71.71,0,0,1-.54-.85.88.88,0,0,1,.59-.55,1.27,1.27,0,0,1,.5.15.93.93,0,0,0-.27-.89,1.37,1.37,0,0,0-1.41-.3,1.88,1.88,0,0,0-1.29,2c.21.66.31,1.37,2.3,2.22a1,1,0,0,1-1,.31c.91,1.48,1.39,3-.11,4.65a1,1,0,0,1-1.47-.15,1,1,0,0,1,0-1.09.77.77,0,0,1,.81-.17,1.09,1.09,0,0,1,.27.35"/><path class="cls-2" d="M16.14,28.83c-.14-.66-.32-1,.41-1.75.14,1.16.29,1.57,1.12,1.8s3,1.34,3.4,2.16.09,1.48-.68,1.19a4.62,4.62,0,0,1-1.86-1.46,7.14,7.14,0,0,0-1.84-1.4,2.18,2.18,0,0,0-1.44.1c.17-.66.44-.92.81-1A2.58,2.58,0,0,0,16.14,28.83Z"/><path class="cls-2" d="M16,33a1.35,1.35,0,0,0,1,1,2,2,0,0,1-.14-1.55,3.4,3.4,0,0,1,1.09-1.77,15.91,15.91,0,0,0,1.94-1.58c.46-.49.44-.9-.36-1a2.67,2.67,0,0,0-2.72,1.87c-.78,1.7-.51,1.85-.93,2.5a2.48,2.48,0,0,1-.94.77,2.65,2.65,0,0,0,1.22,0C16,33.2,16,33,16,33Z"/><path class="cls-2" d="M19,31.23c-1,.44-1.09.39-1.85,0a3.47,3.47,0,0,0-1.85-.63c-.73,0-.63.51-.56.71a2.76,2.76,0,0,0,1.92,1.34,2.69,2.69,0,0,0,2.16-.25,4.82,4.82,0,0,0,.84-.58,8.41,8.41,0,0,1-.66-.6"/><path class="cls-2" d="M20.26,30.21a1.41,1.41,0,0,0,.22-1.14,1.19,1.19,0,0,1,.48,1,1.1,1.1,0,0,1,1,.58,1.54,1.54,0,0,0-1,.12A4.46,4.46,0,0,0,20.26,30.21Z"/><path class="cls-2" d="M16.86,16.71a.5.5,0,0,0-.3.13,1.82,1.82,0,0,1,.31-2.29c.87.8.94,1.45.57,2.2-.15-.05-.17-.07-.26-.05l-.32,0"/><path class="cls-5" d="M14.64,15.77a1.36,1.36,0,0,1,1,.25c-.37-1.05-1.22-3-1.23-3.2A8.55,8.55,0,0,0,14.64,15.77Z"/><path class="cls-5" d="M19.73,18.1a10.28,10.28,0,0,1,3.15-3c-.42,2.5-1.07,3.21-1.58,3.67a5,5,0,0,0-1.6,2.63H19.2l-.63,0a4.8,4.8,0,0,1,.51-2.28Z"/><path class="cls-5" d="M19.8,13.12a20,20,0,0,1-1.2,2.52l-.75,2.76-.36,2.19a3.94,3.94,0,0,1,0,.77l.73,0a5.62,5.62,0,0,1,.56-2.54S20.18,15.25,19.8,13.12Z"/><polygon class="cls-2" points="20.51 1.56 21.52 2.02 20.51 2.21 21.06 2.77 20.15 2.65 20.73 3.48 19.85 3.09 20.11 3.94 19.34 3.35 19.41 4.17 18.78 3.77 18.5 4.83 18.17 4.08 17.86 4.63 17.6 4 16.84 4.69 16.87 3.81 16.21 4.15 16.14 3.35 15.55 3.77 15.55 3.23 14.9 3.6 15.09 2.89 14.17 3.09 14.77 2.28 13.88 2.23 14.99 1.58 11.18 1.65 12.1 2.58 10.74 3.06 11.81 3.52 10.13 4.03 11.47 4.5 9.97 5.25 11.18 5.47 9.44 6.85 11.41 6.65 9.82 8.21 11.3 7.97 9.99 9.78 11.82 9.08 10.9 10.98 12.61 9.91 12.59 11.34 13.53 10.61 13.47 11.76 14.39 11 14.6 11.88 15.46 11.32 15.68 12.49 16.62 11.56 17.2 12.63 17.86 11.6 18.74 12.52 19.14 11.47 19.98 12.38 20.27 11.07 21.19 12.26 21.36 10.74 22.72 12 22.21 9.91 23.69 11.1 23 8.89 24.32 9.76 23.67 8.47 24.98 9.13 23.73 7.12 25.32 7.91 24.57 6.56 26.41 6.82 23.91 5.44 25.73 5.46 23.93 4.45 25.44 4.37 23.59 3.54 25.39 3.31 23.2 2.53 24.64 1.65 20.51 1.56"/><path class="cls-2" d="M16.23,17.22a4.23,4.23,0,0,1-.09.42.92.92,0,0,0-.59,0,3,3,0,0,1-1.24-1.88,2.16,2.16,0,0,1,2.18,1.07l-.25.41"/><circle class="cls-2" cx="17.01" cy="17.52" r="0.88"/><path class="cls-3" d="M17,17.9a.39.39,0,1,0-.39-.39.39.39,0,0,0,.39.39"/><path class="cls-2" d="M18.19,17.44a2.57,2.57,0,0,0,1.7-1.79,2,2,0,0,0-2.07.64s-.26.29-.37.46a.51.51,0,0,1,.24.2l.15.29"/><path class="cls-2" d="M17.88,17.66a1.13,1.13,0,0,0,0-.27,2.21,2.21,0,0,1,2.07,1.27,2.39,2.39,0,0,1-1.34.18,2.08,2.08,0,0,1-1-.7.65.65,0,0,0,.17-.17l.08-.31"/><path class="cls-5" d="M22,19.31a10.61,10.61,0,0,1,2-.82,12.1,12.1,0,0,1,5-.94,7.2,7.2,0,0,0,2,0c.41-.19-1.3,1.42-3.24,1.14a15.94,15.94,0,0,0-1.89,0c-.73.11-1.56.3-1.43.24a4.43,4.43,0,0,1,.89,0,6.09,6.09,0,0,1,1.94.36,5.64,5.64,0,0,1,1.82,1.33,8.92,8.92,0,0,0,.75.87c.13.12.15.1.3.12a.72.72,0,0,1,.51.3c.14.2.36.1.59.15a2,2,0,0,1,.87.66,1.56,1.56,0,0,0,1.07.44c-.68.65-1.09.66-1.09.66-.17-.73-.44-1.29-1.2-1.46a2,2,0,0,1,.93.9,3.66,3.66,0,0,1,.14.78,1.18,1.18,0,0,0,.42.58c-.93-.17-1.58-.39-1.71-1.07s-.39-.83-.39-.83a4.59,4.59,0,0,1,.29,1.09,1,1,0,0,0,.44.54,4.15,4.15,0,0,0,1.09.41c-1.22,0-2-.09-2.12-1.84a2,2,0,0,0,.14,1.31,1.48,1.48,0,0,0,.48.48,2.37,2.37,0,0,1-1.34.59,2.09,2.09,0,0,0,.14-1.66.93.93,0,0,1,.05-.8c.1-.25-.07-.37-.05-.56a2.43,2.43,0,0,0,.05-.41c0-.1-.2-.22-.32-.39a9.25,9.25,0,0,0-1.53-1.43,5.13,5.13,0,0,0-2.45-.73,11.39,11.39,0,0,0-3.45.74s5.78-1.76,7.1,2.95a5.23,5.23,0,0,1,0,1.45,15.72,15.72,0,0,1-1.29-1s-2.89-4.61-6.91-2l-.8,0a3.59,3.59,0,0,1,1-1.8,13.38,13.38,0,0,1,1.89-1.7c.71-.53,3-2.36,3.33-2.77a8.42,8.42,0,0,1,1.79-1.29,5.76,5.76,0,0,1,2.47-.46,7.52,7.52,0,0,0-1.77,1.39,13.09,13.09,0,0,1-1.82,1.65c-.41.29-1.05.77-1.36,1a9.12,9.12,0,0,1-1,.66A21.08,21.08,0,0,0,22,19.29"/><path class="cls-5" d="M16.7,21.37l-.36,0a5.5,5.5,0,0,0-3.2-2.28c-1.21-.47-1.4-.51-2.52-.87s-2.19-.7-2.45-1.12S7.47,16,7.47,16a7.89,7.89,0,0,0,2.21.7,8.73,8.73,0,0,1,1.38.32,16,16,0,0,1,3.73,1.82,4.16,4.16,0,0,1,1,1c.16.38-.28-.6-.28-.6l-.6-.66a10.61,10.61,0,0,0-2.51-1.92c-1.87-.88-1.85-1.38-2.24-2.26a7.41,7.41,0,0,1,2.67,1c.34.2.39.26.73.48a11,11,0,0,1,1.79,1.85"/><path class="cls-5" d="M15.35,17.78a9.19,9.19,0,0,1,2,3.59H16.7"/><path class="cls-5" d="M13.95,20.17a4.42,4.42,0,0,0-1.83-.26,4.53,4.53,0,0,0-2,.73A3.22,3.22,0,0,0,8.79,24a14.13,14.13,0,0,0,1.29-1.26,8.26,8.26,0,0,1,1.14-1.45,2.93,2.93,0,0,1,4,.17l.44,0H16a4,4,0,0,0-2.48-1.85,5.91,5.91,0,0,0-3.94,0,5.45,5.45,0,0,0-2.31,1.31,16.77,16.77,0,0,0-1.29,1.41l-.52.22a1.87,1.87,0,0,0-1.14,1.58c-.17.83-.22,2,.17,1.59a2.48,2.48,0,0,0,.66-1.32c.07-.43.07-.65.31-.87a1.34,1.34,0,0,1,.44-.29,1,1,0,0,1-.26.48.82.82,0,0,0-.13.48,3.75,3.75,0,0,1-.56,1.43c-.24.24-.26.85.34.39s1.5-1,1.43-2.21c0-.8-.17-1,.25-1.72a6.53,6.53,0,0,1,3.67-2.19,5,5,0,0,1,3.34.35"/><path class="cls-2" d="M16.25,18a1.09,1.09,0,0,0,.29.26c-.37.68-.45,1.16-2,1.28.27-1.1.48-1.65.85-1.84a1,1,0,0,1,.75-.05l0,.1.09.25"/><path class="cls-2" d="M17.18,18.34a.69.69,0,0,0,.35-.18,2.09,2.09,0,0,1-.28,2.48,1.93,1.93,0,0,1-.71-2.38.58.58,0,0,0,.29.12l.35,0"/><rect class="cls-4" x="15.75" y="22.08" width="4.62" height="1.21"/><rect class="cls-4" x="15.62" y="35.13" width="4.78" height="0.69"/><polygon class="cls-4" points="14.95 1.58 20.5 1.56 21.5 2.02 20.49 2.21 21.06 2.77 20.15 2.67 20.73 3.48 19.84 3.09 20.08 3.94 19.32 3.37 19.39 4.17 18.75 3.78 18.49 4.8 18.16 4.09 17.84 4.63 17.59 4.01 16.82 4.69 16.87 3.83 16.19 4.14 16.13 3.35 15.54 3.76 15.54 3.23 14.89 3.59 15.09 2.87 14.17 3.09 14.77 2.27 13.9 2.23 14.95 1.58"/><path class="cls-4" d="M15.19,5.24l-.78.64V9.63a5.24,5.24,0,0,0,1.24.64,3.11,3.11,0,0,0,.93.16,2,2,0,0,1,1.13.33,3.07,3.07,0,0,1,1.08-.31,4.59,4.59,0,0,0,.86,0A1.82,1.82,0,0,0,21,9.82V5.66l-.27.16v-.3l-.25.14V5.38l-.28.16V9.15a1.4,1.4,0,0,1-.74.35,2,2,0,0,1-.64,0,3.24,3.24,0,0,0-1.13.27,2.81,2.81,0,0,0-1.21-.25,2,2,0,0,1-1.29-.41V5.24"/><path class="cls-2" d="M16.4,5.57a4.94,4.94,0,0,1-1.21-.4V9.12a1.81,1.81,0,0,0,1.19.4,2.53,2.53,0,0,1,1.29.26,2.71,2.71,0,0,1,1.5-.24,1.85,1.85,0,0,0,1-.39V5.43a2.1,2.1,0,0,1-1,.25,2.11,2.11,0,0,0-1.51.13L17,5.62S16.53,5.59,16.4,5.57Z"/><path class="cls-6" d="M16.39,3.88a2.4,2.4,0,0,0,.51-1.36l0-1,2,0a2.76,2.76,0,0,0-.17,1.11c.25,1.93.08,1.9.08,1.9-.35.79-.66,1.7-.66,1.7l.11.86c.14.36-.2,1.07-.52,1.1s-.3-.42-.3-.42,0,.08-.13-.42a11.65,11.65,0,0,1-.3-1.76,2.89,2.89,0,0,0-.52-.06,2.41,2.41,0,0,1-.93-.24A11.59,11.59,0,0,1,16.33,4l.06-.09"/><path class="cls-2" d="M6.94,22c-.42.73-.3.92-.26,1.72.07,1.22-.83,1.75-1.43,2.21s-.58-.15-.34-.39a3.65,3.65,0,0,0,.56-1.43.83.83,0,0,1,.14-.48.94.94,0,0,0,.25-.48,1.41,1.41,0,0,0-.44.29c-.24.22-.24.44-.31.87a2.51,2.51,0,0,1-.66,1.33c-.39.41-.34-.77-.17-1.6a1.87,1.87,0,0,1,1.14-1.58L6,22.26l.34-.36Z"/><path class="cls-2" d="M29.49,22.54c-.12.15.06.06,0,.31a.91.91,0,0,0-.05.8,2.09,2.09,0,0,1-.14,1.67,2.36,2.36,0,0,0,1.34-.59,1.48,1.48,0,0,1-.48-.48A2,2,0,0,1,30,22.93c.08,1.75.9,1.82,2.12,1.84A4.11,4.11,0,0,1,31,24.36a1,1,0,0,1-.44-.54,4.58,4.58,0,0,0-.29-1.09s.25.15.39.83.78.9,1.71,1.07a1.22,1.22,0,0,1-.42-.58,3.69,3.69,0,0,0-.13-.78,2,2,0,0,0-.94-.9c.77.17,1,.73,1.21,1.46,0,0,.41,0,1.09-.66a1.55,1.55,0,0,1-1.07-.44,2,2,0,0,0-.87-.66c-.24-.05-.46.05-.59-.15A2.46,2.46,0,0,0,29.49,22.54Z"/><path class="cls-3" d="M5.81,45.86a1.22,1.22,0,0,0,1-.54,1,1,0,0,1,1-.32c.43.11.58.1.76,0s.16-.19.66-.21c-.66-.74-1.1-.52-1.66-.4a1.26,1.26,0,0,1-1.39-.76l-.45.06c-.27-.24-.83-.06-.83-.06s-1,.39-1.1-.39.27-.83.27-.83c.18,0,.45-.45.45-.45.09-.51.48-.48.48-.48.21-.15,1.07.24,1.07.24s0,.12.57.06.51-.45.51-.45c-.06-.6-.75-.42-.75-.42.48-.62,2,.12,2,.12a1.48,1.48,0,0,1,1.67-.48,1.58,1.58,0,0,1,1.82-.36c0-.89,1.64-1.31,1.64-1.31.24-.06.77-.9.77-.9,1,2.53-.75,2.71-.75,2.71l.76-.11a2,2,0,0,0,1.45-1.5c.2,1.61,0,2.15-.53,2.73a1.54,1.54,0,0,0,.92-.13,1.84,1.84,0,0,1-1.41,1.11,3.34,3.34,0,0,0,1.73-.5,2.14,2.14,0,0,1-1,1.26,2.23,2.23,0,0,0,1-.42c-.35,1.15-1,1.36-1.31,1.45a2.26,2.26,0,0,0,1.23-.29c-.55,1.23-1,1.31-1.15,1.44a1.33,1.33,0,0,1-1.16-.13c.63.43.87.68,1.13.84a1.74,1.74,0,0,1-1.71-.19,1.35,1.35,0,0,0,0,.77,1,1,0,0,1-.61-.37l0,0A6.18,6.18,0,0,1,10,46.49a1.17,1.17,0,0,0-1.07,0,2,2,0,0,1-1.11.08.73.73,0,0,0-.73.16.91.91,0,0,1-1.47-.08c-.21-.24-.29-.19-.48-.21S5,46,5,45.93l.86-.08"/><path class="cls-2" d="M6.22,43.57a1.26,1.26,0,0,0,1.39.76c.56-.11,1-.34,1.66.4-.5,0-.49.08-.66.21s-.32.14-.76,0a1,1,0,0,0-1,.32c-.26.27-.4.48-.89.45"/><path class="cls-1" d="M7.46,44.95A5.5,5.5,0,0,1,6,44.48a1.76,1.76,0,0,0-1.1-.1c-.6.08-.5.5-1.58.07-.23-.09-.52-.12-1.21.32a.63.63,0,0,0,.09,1.16c1.18.5,1.49.63,2.1.26a1.3,1.3,0,0,1,1-.29,7.49,7.49,0,0,0,1-.14.79.79,0,0,0,.48-.35,1.37,1.37,0,0,1,.71-.45"/><path class="cls-2" d="M10.36,42.87a.47.47,0,1,0-.47-.47.48.48,0,0,0,.47.47"/><path class="cls-2" d="M5.24,43.49a2.27,2.27,0,0,0,0,.87,1.2,1.2,0,0,1-.61-.71"/><path class="cls-2" d="M6,45.83c-.47-.39-.18-1.18-.18-1.18.26.32.42.66.9.79a2.79,2.79,0,0,1-.29.26,3.88,3.88,0,0,1-.43.13"/><path class="cls-2" d="M5.11,43.54a1.77,1.77,0,0,0,.56,1c.06-.45-.06-.45.27-.84"/><path class="cls-2" d="M5.59,43.57a1.89,1.89,0,0,0,.63,1.18c0-.68.23-.84.23-.84"/><path class="cls-2" d="M9.27,44.74a1,1,0,0,0-.6.16c-.11.08-.23.18-.34.16a2.19,2.19,0,0,1,.35-1.24,1.39,1.39,0,0,0,.58.92"/><path class="cls-2" d="M6.75,43.77a.31.31,0,0,0-.16.44c.08.11.06.07.26.16a.67.67,0,0,0,.59-.06.85.85,0,0,0,.45-.65c.1-.64,0-1.18-1-1.26a.81.81,0,0,1-.18,1.37"/><path class="cls-2" d="M7.8,44.32a1,1,0,0,0,.37-.74.9.9,0,0,1,.18.65,2,2,0,0,0-.55.1"/><path class="cls-3" d="M23.66,45.86a1.22,1.22,0,0,0,1-.54,1,1,0,0,1,1-.32c.43.11.58.1.76,0s.16-.19.66-.21c-.66-.74-1.1-.52-1.66-.4a1.26,1.26,0,0,1-1.39-.76l-.45.06c-.27-.24-.83-.06-.83-.06s-1,.39-1.1-.39.27-.83.27-.83c.18,0,.45-.45.45-.45.09-.51.48-.48.48-.48.21-.15,1.07.24,1.07.24s0,.12.57.06.51-.45.51-.45c-.06-.6-.75-.42-.75-.42.48-.62,2,.12,2,.12a1.48,1.48,0,0,1,1.67-.48,1.58,1.58,0,0,1,1.82-.36c0-.89,1.64-1.31,1.64-1.31.24-.06.77-.9.77-.9,1,2.53-.75,2.71-.75,2.71l.76-.11a2,2,0,0,0,1.45-1.5c.2,1.61,0,2.15-.53,2.73a1.54,1.54,0,0,0,.92-.13,1.84,1.84,0,0,1-1.41,1.11,3.34,3.34,0,0,0,1.73-.5,2.14,2.14,0,0,1-1,1.26,2.23,2.23,0,0,0,1-.42c-.35,1.15-1,1.36-1.31,1.45a2.26,2.26,0,0,0,1.23-.29c-.55,1.23-1,1.31-1.15,1.44a1.33,1.33,0,0,1-1.16-.13c.63.43.87.68,1.13.84a1.74,1.74,0,0,1-1.71-.19,1.35,1.35,0,0,0,0,.77,1,1,0,0,1-.61-.37l0,0a6.18,6.18,0,0,1-2.84-.08,1.17,1.17,0,0,0-1.07,0,2,2,0,0,1-1.11.08.73.73,0,0,0-.73.16.91.91,0,0,1-1.47-.08c-.21-.24-.29-.19-.48-.21s-.22-.51-.22-.56l.86-.08"/><path class="cls-2" d="M24.07,43.57a1.26,1.26,0,0,0,1.39.76c.56-.11,1-.34,1.66.4-.5,0-.49.08-.66.21s-.32.14-.76,0a1,1,0,0,0-1,.32c-.26.27-.4.48-.89.45"/><path class="cls-1" d="M25.31,44.95a5.5,5.5,0,0,1-1.47-.47,1.76,1.76,0,0,0-1.1-.1c-.6.08-.5.5-1.58.07-.23-.09-.52-.12-1.21.32A.63.63,0,0,0,20,45.93c1.18.5,1.49.63,2.1.26a1.3,1.3,0,0,1,1-.29,7.49,7.49,0,0,0,1-.14.79.79,0,0,0,.48-.35,1.37,1.37,0,0,1,.71-.45"/><path class="cls-2" d="M28.21,42.87a.47.47,0,1,0-.47-.47.48.48,0,0,0,.47.47"/><path class="cls-2" d="M23.08,43.49a2.27,2.27,0,0,0,0,.87,1.2,1.2,0,0,1-.61-.71"/><path class="cls-2" d="M23.82,45.83c-.47-.39-.18-1.18-.18-1.18.26.32.42.66.9.79a2.79,2.79,0,0,1-.29.26,3.88,3.88,0,0,1-.43.13"/><path class="cls-2" d="M23,43.54a1.77,1.77,0,0,0,.56,1c.06-.45-.06-.45.27-.84"/><path class="cls-2" d="M23.44,43.57a1.89,1.89,0,0,0,.63,1.18c0-.68.23-.84.23-.84"/><path class="cls-2" d="M27.12,44.74a1,1,0,0,0-.6.16c-.11.08-.23.18-.34.16a2.19,2.19,0,0,1,.35-1.24,1.39,1.39,0,0,0,.58.92"/><path class="cls-2" d="M24.6,43.77a.31.31,0,0,0-.16.44c.08.11.06.07.26.16a.67.67,0,0,0,.59-.06.85.85,0,0,0,.45-.65c.1-.64,0-1.18-1-1.26a.81.81,0,0,1-.18,1.37"/><path class="cls-2" d="M25.65,44.32a1,1,0,0,0,.37-.74.9.9,0,0,1,.18.65,2,2,0,0,0-.55.1"/><path class="cls-3" d="M20.14,70.47a1.22,1.22,0,0,0,1-.54,1,1,0,0,1,1-.32c.43.11.58.1.76,0s.16-.19.66-.21c-.66-.74-1.1-.52-1.66-.4a1.26,1.26,0,0,1-1.39-.76l-.45.06c-.27-.24-.83-.06-.83-.06s-1,.39-1.1-.39.27-.83.27-.83c.18,0,.45-.45.45-.45.09-.51.48-.48.48-.48.21-.15,1.07.24,1.07.24s0,.12.57.06.51-.45.51-.45c-.06-.6-.75-.42-.75-.42.48-.62,2,.12,2,.12a1.48,1.48,0,0,1,1.67-.48,1.58,1.58,0,0,1,1.82-.36c0-.89,1.64-1.31,1.64-1.31.24-.06.77-.9.77-.9,1,2.53-.75,2.71-.75,2.71l.76-.11a2,2,0,0,0,1.45-1.5c.2,1.61,0,2.15-.53,2.73a1.54,1.54,0,0,0,.92-.13,1.84,1.84,0,0,1-1.41,1.11,3.34,3.34,0,0,0,1.73-.5,2.14,2.14,0,0,1-1,1.26,2.23,2.23,0,0,0,1-.42c-.35,1.15-1,1.36-1.31,1.45a2.26,2.26,0,0,0,1.23-.29c-.55,1.23-1,1.31-1.15,1.44a1.33,1.33,0,0,1-1.16-.13c.63.43.87.68,1.13.84a1.74,1.74,0,0,1-1.71-.19,1.35,1.35,0,0,0,0,.77,1,1,0,0,1-.61-.37l0,0a6.18,6.18,0,0,1-2.84-.08,1.17,1.17,0,0,0-1.07,0,2,2,0,0,1-1.11.08.73.73,0,0,0-.73.16A.91.91,0,0,1,20,71.32c-.21-.24-.29-.19-.48-.21s-.22-.51-.22-.56l.86-.08"/><path class="cls-2" d="M20.55,68.19a1.26,1.26,0,0,0,1.39.76c.56-.11,1-.34,1.66.4-.5,0-.49.08-.66.21s-.32.14-.76,0a1,1,0,0,0-1,.32c-.26.27-.4.48-.89.45"/><path class="cls-1" d="M21.79,69.56a5.5,5.5,0,0,1-1.47-.47,1.76,1.76,0,0,0-1.1-.1c-.6.08-.5.5-1.58.07-.23-.09-.52-.12-1.21.32a.63.63,0,0,0,.09,1.16c1.18.5,1.49.63,2.1.26a1.3,1.3,0,0,1,1-.29,7.49,7.49,0,0,0,1-.14.79.79,0,0,0,.48-.35,1.37,1.37,0,0,1,.71-.45"/><path class="cls-2" d="M24.69,67.48a.47.47,0,1,0-.47-.47.48.48,0,0,0,.47.47"/><path class="cls-2" d="M19.56,68.11a2.27,2.27,0,0,0,0,.87,1.2,1.2,0,0,1-.61-.71"/><path class="cls-2" d="M20.31,70.45c-.47-.39-.18-1.18-.18-1.18.26.32.42.66.9.79a2.79,2.79,0,0,1-.29.26,3.88,3.88,0,0,1-.43.13"/><path class="cls-2" d="M19.44,68.15a1.77,1.77,0,0,0,.56,1c.06-.45-.06-.45.27-.84"/><path class="cls-2" d="M19.92,68.18a1.89,1.89,0,0,0,.63,1.18c0-.68.23-.84.23-.84"/><path class="cls-2" d="M23.6,69.35a1,1,0,0,0-.6.16c-.11.08-.23.18-.34.16A2.19,2.19,0,0,1,23,68.43a1.39,1.39,0,0,0,.58.92"/><path class="cls-2" d="M21.08,68.38a.31.31,0,0,0-.16.44c.08.11.06.07.26.16a.67.67,0,0,0,.59-.06.85.85,0,0,0,.45-.65c.1-.64,0-1.18-1-1.26a.81.81,0,0,1-.18,1.37"/><path class="cls-2" d="M22.13,68.93a1,1,0,0,0,.37-.74.9.9,0,0,1,.18.65,2,2,0,0,0-.55.1"/><path class="cls-7" d="M54.5,57.34,53,47.66l1.56-1.27a.16.16,0,0,0,.06-.12V43.53a.16.16,0,0,0-.16-.16h-1l-.28-1.71.29-.86s0,0,0,0v-1a.12.12,0,0,0-.12-.12h-.44a.12.12,0,0,0-.12.12v.45h-.27v-.46a.12.12,0,0,0-.12-.12h-.52a.12.12,0,0,0-.12.12v.46h-.27v-.46a.12.12,0,0,0-.12-.12h-.5a.12.12,0,0,0-.12.12v1s0,0,0,0l.27.86-.28,1.71h-.87l-.28-1.7.3-.84s0,0,0,0v-1a.12.12,0,0,0-.12-.12H49.4a.12.12,0,0,0-.12.12v.45H49v-.46a.12.12,0,0,0-.12-.12h-.53a.12.12,0,0,0-.12.12v.46H48v-.46a.12.12,0,0,0-.12-.12h-.5a.12.12,0,0,0-.12.12v1s0,0,0,0l.26.84-.28,1.7h-.93L46,41.67l.28-.81s0,0,0,0v-1a.12.12,0,0,0-.12-.12h-.44a.12.12,0,0,0-.12.12v.45h-.27v-.46a.12.12,0,0,0-.12-.12h-.52a.12.12,0,0,0-.12.12v.46h-.27v-.46a.12.12,0,0,0-.12-.12h-.5a.12.12,0,0,0-.12.12v1s0,0,0,0l.28.81-.28,1.71h-.88a.16.16,0,0,0-.16.16v2.75a.16.16,0,0,0,.06.13l1.52,1.24-1.44,9.57h0l-2.08,2a.16.16,0,0,0,0,.12v6.19a.16.16,0,0,0,.16.16H56.35a.16.16,0,0,0,.16-.16V59.43a.16.16,0,0,0,0-.11Zm-.35-.14H52.31v-.9H54ZM46,43.7V44H44.1V43.7Zm-1.27-1.14c0-.26.18-.38.31-.38h0c.13,0,.27.12.3.38v.73h-.61ZM46,44.19v.5H44.1v-.5Zm-1.17.67h2v1.25h-2Zm2,1.42.12,1.16H45.25l-.43-1.16Zm2.74-2.58V44H47.66v-.3Zm-1.23-1.13c0-.27.18-.38.31-.38h0c.13,0,.27.12.3.38v.73h-.61ZM53.1,43.7V44H51.23v-.3Zm-1.25-1.15c0-.26.18-.38.31-.38h0c.13,0,.27.12.3.37v.73h-.61Zm1.25,1.62v.51H51.23v-.51Zm-.82.69v1.25H50.41V44.86Zm-.06,1.42-.55,1.16H50.24l.15-1.16ZM46.8,54h3.59v1H46.8Zm-.57-.17v-1H47.4v1Zm1.45-6h1.84v1.12H47.68Zm-.61-.32L47,46.28h1.55v1.16Zm1.6-1.16h1.55l-.15,1.16H48.68ZM50.32,49v1.28h-.47a1.22,1.22,0,0,0-2.44,0h-.52V49Zm.8,1.45v1H49.86v-1Zm-3.73,0v1H46.08v-1Zm2.47,3.29v-1H51v1Zm.69.17h1.58v1H50.56Zm.59-.17v-1h1.52v1Zm.63-1.15H49.86v-1h1.91Zm-.48-1.15v-1h1v1Zm.55-1.15H50.49V49h1.35Zm-.41-1.45V47.76H52.7l.17,1.12Zm-.17-1.12v1.12H49.69V47.76Zm-2.58-1.65V44.86h1.57v1.25Zm.85-1.94v.51H47.66v-.51Zm-1,.69v1.25H47V44.86Zm-1,2.9v1.12H45.94V47.76Zm-1.74,0v1.12H44.31l.17-1.12ZM45.35,49h1.36v1.28H45.35Zm.56,1.45v1h-1v-1Zm-.47,1.15h2v1h-2Zm.62,1.17v1H44.57v-1Zm-1,1.14h1.54v1H45.09Zm.69,1.19v1H44.2v-1Zm-.69,1.15h1.69v.9H45.09Zm.86-.17v-1H47.8v1Zm1,.17h1.57v.9H47Zm1-.17v-1h1.28v1Zm.72.17h1.55v.9H48.69Zm.73-.17v-1h1.85v1Zm1,.17h1.73v.9H50.41Zm1-.17v-1H53v1Zm2.54,0h-.8v-1h.65ZM53.81,55h-1.5V54h1.34Zm-.18-1.19h-.8v-1h.65Zm-.18-1.15h-1.5v-1H53.3Zm-.18-1.15h-.79v-1h.63Zm-.18-1.15H52V49h.89Zm-.31-2.9h-.93l.55-1.16H54.2Zm1.52-1.33H52.45V44.86h1.86Zm-1-2.41h1v1h-1ZM51,39.87h.27v.46a.12.12,0,0,0,.12.12h.5a.12.12,0,0,0,.12-.12v-.46h.29v.46a.12.12,0,0,0,.12.12h.5a.12.12,0,0,0,.12-.12v-.45h.21v.77H51Zm0,1h2.14l-.24.71H51.31Zm.23.82H53l.26,1.56h-.66v-.74c0-.33-.23-.48-.41-.48h0c-.18,0-.38.15-.42.49v.73h-.69Zm-1.61,2h1.37v1H49.7Zm-.28-2.09H47.75l-.22-.7h2.14Zm-1.93-.93V39.9h.27v.46a.12.12,0,0,0,.12.12h.5a.12.12,0,0,0,.12-.12v-.46h.29v.46a.12.12,0,0,0,.12.12h.5a.12.12,0,0,0,.12-.12V39.9h.21v.78Zm.26,1h1.66l.26,1.56H49v-.73c0-.33-.23-.48-.41-.48h0c-.18,0-.38.15-.42.49v.73h-.69Zm-1.63,2h1.37v1H46.12Zm-2.27-3.77h.27v.46a.12.12,0,0,0,.12.12h.5a.12.12,0,0,0,.12-.12v-.46h.29v.46a.12.12,0,0,0,.12.12h.5a.12.12,0,0,0,.12-.12v-.45h.21v.78H43.86Zm0,1H46l-.23.66H44.13Zm.23.78H45.8l.26,1.56H45.4v-.73c0-.33-.23-.48-.41-.48h0c-.18,0-.38.15-.42.49v.73h-.69Zm-1.23,2h1v1h-1Zm0,1.16h1.71v1.25H42.91ZM43,46.28h1.66l.43,1.16H44.4ZM44.28,49h.9v1.28H44.09Zm-.22,1.45h.69v1h-.83Zm-.17,1.15h1.38v1H43.74Zm-.18,1.17h.69v1h-.83ZM43.54,54h1.38v1H43.39Zm-.18,1.19H44v1h-.82Zm-.17,1.15h1.73v.9H43.05Zm-.32,1.22H54.22l.76.76H42.09Zm-1,.93H55.15l.83.83H41.05Zm8.74,4.75v-1h1.63v1Zm.69.17v1h-.69v-1Zm-.69-1.32v-1h.69v1Zm2.73-1v1H51.51v-1h1.87Zm-.93-.17V59.45h1.87v1.44Zm-.94,2.48h1.85v1H51.51Zm.94-.17v-1h2v1Zm1.09.17h1.85v1H53.53Zm0-1.32v-1H55.4v1ZM44.61,63.2h-2v-1h2Zm.93.17v1H43.71v-1Zm-2,0v1H41.7v-1Zm0-2.31v1H41.68v-1Zm-.79-.17V59.45h1.86v1.44Zm1,1.16v-1h1.85v1Zm-2.81-2.6h1.68v1.44H40.9Zm0,1.61h.61v1H40.9Zm0,1.17h1.56v1H40.9Zm0,1.15h.63v1H40.9Zm1.56,2H40.9v-.85h1.56Zm2.16,0h-2v-.85h2Zm1.8,0H44.79v-.85h1.63Zm0-1h-.71v-1h.71Zm0-1.17H44.78v-1h1.65Zm0-1.15h-.7v-1h.7ZM48.65,60a2.6,2.6,0,0,0-2.1.91H44.78V59.45h7.5v1.44H50.53A2.4,2.4,0,0,0,48.65,60Zm3.62,5.41H50.65v-.85h1.63Zm2.17,0h-2v-.85h2Zm1.74,0H54.62v-.85h1.57Zm0-1h-.64v-1h.64Zm0-1.17H54.62v-1h1.57Zm0-1.15h-.62v-1h.62Zm0-1.16H54.48V59.45h1.67l0,0Z"/><path class="cls-7" d="M10.78,45.28a.91.91,0,0,1-.74-.62v-.07c-.06-.28-.11-.52-.51-.58a.05.05,0,0,0-.06,0,.05.05,0,0,0,0,.06c.34.05.37.23.43.5v.07a1,1,0,0,0,.81.7,1.56,1.56,0,0,1,.73.55l0,0h0a0,0,0,0,0,0-.07A1.64,1.64,0,0,0,10.78,45.28Z"/><path class="cls-7" d="M11.48,41.65s.11-.28.37-.4a1.5,1.5,0,0,0-1.14-.13C11.09,41.15,11.18,41.35,11.48,41.65Z"/><path class="cls-7" d="M9.14,45.55a.05.05,0,0,0,0-.05h0a0,0,0,0,0,0,0,1.07,1.07,0,0,0,.07.58.05.05,0,0,0,0,0h0a0,0,0,0,0,0-.07A1,1,0,0,1,9.14,45.55Z"/><path class="cls-7" d="M10.23,45.59a0,0,0,0,0,0,.07.9.9,0,0,1,.26.53,0,0,0,0,0,0,0h0a.05.05,0,0,0,0-.05,1,1,0,0,0-.29-.6A0,0,0,0,0,10.23,45.59Z"/><path class="cls-7" d="M9.46,45.34a0,0,0,0,0,0-.06,0,0,0,0,0-.06,0,1.07,1.07,0,0,0,.15.71l0,0h0a0,0,0,0,0,0-.07A1,1,0,0,1,9.46,45.34Z"/><path class="cls-7" d="M6.26,46.65c-.16-.08-.24-.11-.38-.4a.05.05,0,0,0-.07,0,0,0,0,0,0,0,.07.73.73,0,0,0,.43.45l.11.06h0a0,0,0,0,0,0-.09Z"/><path class="cls-7" d="M10.7,45.61a.05.05,0,0,0-.07,0,0,0,0,0,0,0,.07.91.91,0,0,1,.5.45l0,.08a0,0,0,0,0,0,0h0a0,0,0,0,0,0-.07l0-.07A1,1,0,0,0,10.7,45.61Z"/><path class="cls-7" d="M8.8,45.54a0,0,0,0,0-.06,0,1.71,1.71,0,0,0,0,.63,0,0,0,0,0,0,0h0a0,0,0,0,0,0-.06,1.65,1.65,0,0,1,0-.59A0,0,0,0,0,8.8,45.54Z"/><path class="cls-7" d="M8.44,45.64a.05.05,0,0,0-.06,0,3.83,3.83,0,0,0,0,.66,0,0,0,0,0,0,0h0a0,0,0,0,0,0-.05,3.92,3.92,0,0,1,0-.64A.05.05,0,0,0,8.44,45.64Z"/><path class="cls-7" d="M6.7,46.54a.42.42,0,0,1-.27-.34.05.05,0,0,0-.06,0,.05.05,0,0,0,0,.06.52.52,0,0,0,.33.41h0l0,0a0,0,0,0,0,0-.07Z"/><path class="cls-7" d="M7.75,45.82a0,0,0,0,0,0-.06h0a0,0,0,0,0,0,0,1.78,1.78,0,0,0,0,.55.05.05,0,0,0,0,0h0a0,0,0,0,0,0-.06A1.71,1.71,0,0,1,7.75,45.82Z"/><path class="cls-7" d="M6.8,46.12a0,0,0,1,0-.1,0,.4.4,0,0,0,.19.3l0,0,0,0H7a.05.05,0,0,0,0-.07l0,0C6.9,46.3,6.8,46.23,6.8,46.12Z"/><path class="cls-7" d="M2.16,46a4.32,4.32,0,0,0,1.49.48,1.32,1.32,0,0,0,.7-.23A2.31,2.31,0,0,1,4.87,46c0,.11,0,.53.32.56h.1c.12,0,.17,0,.32.17a1.2,1.2,0,0,0,.85.45,1.09,1.09,0,0,0,.68-.3l.07-.06a.62.62,0,0,1,.63-.15A2.14,2.14,0,0,0,9,46.62a1.14,1.14,0,0,1,1,0,5.74,5.74,0,0,0,2.84.09l0,0a1.06,1.06,0,0,0,.65.38.1.1,0,0,0,.1,0,.1.1,0,0,0,0-.11s-.08-.14,0-.54a1.85,1.85,0,0,0,1.66.11.1.1,0,0,0,0-.18,4.28,4.28,0,0,1-.37-.27l-.22-.17a1.07,1.07,0,0,0,.63-.09l.08,0c.23-.13.61-.34,1.1-1.43a.1.1,0,0,0,0-.13.11.11,0,0,0-.13,0,1.43,1.43,0,0,1-.54.2,2.33,2.33,0,0,0,.8-1.26.1.1,0,0,0-.18-.1,1,1,0,0,1-.35.2,2.86,2.86,0,0,0,.54-.93.1.1,0,0,0-.17-.11,2,2,0,0,1-.82.34,2.46,2.46,0,0,0,.66-.83.1.1,0,0,0,0-.12.11.11,0,0,0-.12,0,1.36,1.36,0,0,1-.66.14c.5-.58.59-1.21.42-2.66a.1.1,0,0,0-.1-.09.11.11,0,0,0-.11.08,1.84,1.84,0,0,1-1.37,1.42h-.09a1.6,1.6,0,0,0,.3-.38,2.31,2.31,0,0,0-.09-2.17.1.1,0,0,0-.17,0c-.15.18-.26.33-.34.44a1.16,1.16,0,0,1-.86.59A1.81,1.81,0,0,0,11.79,40a1.37,1.37,0,0,0-.56-.13,1.66,1.66,0,0,0-1.19.52,1.28,1.28,0,0,0-1.44.29c-.19.24-.2.23-.36.14L8,40.7a1.63,1.63,0,0,0-1.68.07.1.1,0,0,0,0,.12.1.1,0,0,0,.11.07.79.79,0,0,1,.59.1.3.3,0,0,1,.07.24.28.28,0,0,1-.1.21.39.39,0,0,1-.27.09l-.25,0-.4,0a.6.6,0,0,1-.19-.08,1.38,1.38,0,0,0-.68-.18h0a.75.75,0,0,0-.67.34v0A.9.9,0,0,1,4,42.3a.56.56,0,0,0-.26.37,1.26,1.26,0,0,0,.08.82.8.8,0,0,0,.67.3l.17,0a1.31,1.31,0,0,0,.4.5H4.88a1.32,1.32,0,0,0-.46.15c-.21.11-.38.2-1.07-.08-.29-.12-.62-.11-1.3.33a.79.79,0,0,0-.4.71A.77.77,0,0,0,2.16,46Zm13-4.33a.1.1,0,0,0,.05.18,1.57,1.57,0,0,0,.7,0,1.64,1.64,0,0,1-1.19.81.1.1,0,0,0-.09.12.11.11,0,0,0,.11.09,4.76,4.76,0,0,0,1.49-.34,1.87,1.87,0,0,1-.81.91.1.1,0,0,0,0,0,7.61,7.61,0,0,1-1.64,0,8.15,8.15,0,0,0,1-1.36,0,0,0,0,0,0-.06,0,0,0,0,0-.05,0,1.91,1.91,0,0,1-.51.08l.07,0a3.54,3.54,0,0,0,1.5-1.65A1.76,1.76,0,0,1,15.18,41.69Zm-.82-1.76a1.25,1.25,0,0,1-.63.59l-.18,0-.15,0a3.8,3.8,0,0,0,.7-.8,0,0,0,0,0,0,0l0,0a5.06,5.06,0,0,0-.51,0,3,3,0,0,0,.94-.79A1.72,1.72,0,0,1,14.36,39.93ZM6,41.76l.41,0,.24,0a.62.62,0,0,0,.42-.14.49.49,0,0,0,.17-.36.5.5,0,0,0-.13-.4.61.61,0,0,0-.33-.15,1.54,1.54,0,0,1,1.13.13l.21.11c.23.14.36.16.63-.19a1,1,0,0,1,1.1-.25l-.08.1a.1.1,0,0,0,0,.14.1.1,0,0,0,.14,0,1.69,1.69,0,0,1,1.25-.71h0a1.17,1.17,0,0,1,.56.16h0a1,1,0,0,1,.26.22.1.1,0,0,0,.16-.13,1.18,1.18,0,0,0-.26-.24,1.57,1.57,0,0,1,1.13-1,1.36,1.36,0,0,0,1-.67l.23-.3a3.23,3.23,0,0,1,.17.6,2.91,2.91,0,0,1-1,.86l-.13.07a0,0,0,0,0,0,.06.05.05,0,0,0,0,0,4,4,0,0,1,.62,0,4.51,4.51,0,0,1-.78.83c-.58.15-.87.44-.92,1.29a.1.1,0,0,0,.1.11.1.1,0,0,0,.11-.1c0-.91.39-1.06,1.09-1.16l.17,0h0l.58-.09a2,2,0,0,0,1.38-1.14c0,.25,0,.46,0,.65A3.49,3.49,0,0,1,14.2,42L14,42.1a0,0,0,0,0,0,.05.05.05,0,0,0,0,0,2.53,2.53,0,0,0,.6-.05,8.77,8.77,0,0,1-1,1.31.05.05,0,0,0,0,0,0,0,0,0,0,0,0,6,6,0,0,0,1,.07c.35,0,.64,0,.77,0a.1.1,0,0,0,.11,0,5.06,5.06,0,0,0,.74-.26,1.58,1.58,0,0,1-1.13,1.09.1.1,0,0,0,0,.2,3.15,3.15,0,0,0,1-.16,3.08,3.08,0,0,1-.53.8,5.22,5.22,0,0,1-2.34-.9,0,0,0,0,0-.07,0,0,0,0,0,0,0,.07,5.39,5.39,0,0,0,2.3.9,1.44,1.44,0,0,1-.26.18l-.1.06a1.26,1.26,0,0,1-1-.13.1.1,0,0,0-.12.17c.34.24.57.41.75.55l.21.17a1.69,1.69,0,0,1-.38.06,6,6,0,0,1-1.43-1.15.05.05,0,0,0-.07,0,.05.05,0,0,0,0,.07,6.09,6.09,0,0,0,1.3,1.09,1.66,1.66,0,0,1-.84-.3.1.1,0,0,0-.1,0,.1.1,0,0,0-.06.08,2.51,2.51,0,0,0,0,.64.88.88,0,0,1-.35-.26l0,0,0-.05h0a2.35,2.35,0,0,1-.35-.89,0,0,0,0,0-.06,0,0,0,0,0,0,0,.06,2.67,2.67,0,0,0,.31.85,5.58,5.58,0,0,1-2.73-.08,1.33,1.33,0,0,0-1.15,0,2,2,0,0,1-1,.08.84.84,0,0,0-.83.17L7,46.75c-.25.2-.63.51-1.25-.13a.53.53,0,0,0-.47-.24H5.21c-.07,0-.13-.25-.13-.38h.23a7.35,7.35,0,0,0,1-.15.89.89,0,0,0,.55-.4,1.23,1.23,0,0,1,.64-.4h0a1,1,0,0,1,.34,0,2,2,0,0,0,.47.08A.59.59,0,0,0,8.67,45L8.75,45c.1-.08.14-.12.52-.13a.1.1,0,0,0,.07-.17A2,2,0,0,0,9,44.33a1.71,1.71,0,0,1-.22-.52,0,0,0,0,0,0,0,0,0,0,0,0,0,0,2.33,2.33,0,0,0-.18.34H8.4a1,1,0,0,0-.19-.58,0,0,0,0,0-.05,0,0,0,0,0,0,0,0v0a1,1,0,0,1-.25.57l-.08,0-.14,0a.86.86,0,0,0,.31-.56,1.18,1.18,0,0,0-.16-.94,1.17,1.17,0,0,0-.86-.37.05.05,0,0,0,0,0,0,0,0,0,0,0,.06.8.8,0,0,1,.3.66,1,1,0,0,1-.47.63.34.34,0,0,0-.16.16,1.33,1.33,0,0,1-.2-.27A.62.62,0,0,0,6.69,43a.8.8,0,0,0-.37-.7.74.74,0,0,1-.39-.45,1.58,1.58,0,0,0-.07-.17l-.05-.06A.68.68,0,0,0,6,41.76Zm-.08,4a1.11,1.11,0,0,1-.13-.95l.08.1a1.47,1.47,0,0,0,.67.58.76.76,0,0,1-.32.2Zm-.27-2a.53.53,0,0,0,.5,0,1.38,1.38,0,0,0,.17.25,1.15,1.15,0,0,0-.18.69A1.94,1.94,0,0,1,5.68,43.7Zm.12.6H5.74v-.05s0,0,0,0ZM6.42,44l.09.08a.26.26,0,0,0,0,.13.24.24,0,0,0,.15.12l.13.06a.6.6,0,0,0,.25,0l.16,0a1.14,1.14,0,0,0,.39,0l.2,0a1.76,1.76,0,0,1,.57-.06,2,2,0,0,0-.1.61,1.56,1.56,0,0,1-.42-.07,1.12,1.12,0,0,0-.39,0h0a5.81,5.81,0,0,1-1.2-.35A1.06,1.06,0,0,1,6.42,44Zm.2,0a.26.26,0,0,1,.15-.17h0a1.1,1.1,0,0,0,.52-.71.82.82,0,0,0-.24-.64,1,1,0,0,1,.65.32,1.08,1.08,0,0,1,.14.86.79.79,0,0,1-.42.6h0a.62.62,0,0,1-.55.06l-.14-.06c-.05,0-.06,0-.1-.08A.22.22,0,0,1,6.62,44ZM8,44.22a1,1,0,0,0,.24-.49.86.86,0,0,1,.1.44A1.84,1.84,0,0,0,8,44.22Zm.71-.28a1.56,1.56,0,0,0,.46.76.9.9,0,0,0-.49.16l0,0a.55.55,0,0,1-.21.12A2.14,2.14,0,0,1,8.67,43.94ZM4,43.38a1.08,1.08,0,0,1-.05-.66.35.35,0,0,1,.16-.24,1.12,1.12,0,0,0,.61-.75.55.55,0,0,1,.46-.23h0a.57.57,0,0,1,.49.32,1.34,1.34,0,0,1,.06.15.94.94,0,0,0,.48.55.59.59,0,0,1,.27.52.42.42,0,0,1-.21.38c-.34.17-.4.14-.52.08h0a1,1,0,0,0-1,0A.69.69,0,0,1,4,43.38Zm1.19.23a.6.6,0,0,1,.38,0,2.21,2.21,0,0,0,.1.38.85.85,0,0,0,0,.2c0,.05,0,.11,0,.19A1.69,1.69,0,0,1,5.18,43.61Zm.18.63H5.3s0-.07,0-.1Zm-.62-.5h.08l.26-.09a1.56,1.56,0,0,0,.08.27,1.63,1.63,0,0,0,0,.36A1.16,1.16,0,0,1,4.74,43.74ZM2.16,44.85A1.75,1.75,0,0,1,3,44.49a.6.6,0,0,1,.24,0c.78.32,1,.2,1.24.08a1.11,1.11,0,0,1,.39-.13,2.49,2.49,0,0,1,.63,0l.07.08,0,0,0,0h0a.05.05,0,0,0,0,0s0,0,0,0a1.21,1.21,0,0,1,.23.07l0,0a1.25,1.25,0,0,0,.19.19h.05a0,0,0,0,0,0,0s0,0,0,0a5.51,5.51,0,0,0,.84.26,1.06,1.06,0,0,0-.45.37l0,0A1.34,1.34,0,0,1,6,44.81l-.14-.18a0,0,0,0,0,0,0,.05.05,0,0,0,0,0,1.34,1.34,0,0,0,.07,1.09l-.53.06H5.17c-.18,0-.37,0-.92.31s-.8.25-2-.26a.52.52,0,0,1-.08-1Z"/><path class="cls-7" d="M9.35,42.88a0,0,0,0,0,0,0h0a0,0,0,0,0,0-.07.52.52,0,0,0-.38-.26.56.56,0,0,0,0-.47A1.32,1.32,0,0,0,9.32,42a1.79,1.79,0,0,0,.74,0,.51.51,0,0,0-.22.42.52.52,0,0,0,.52.52l.11,0a2.67,2.67,0,0,0,.12.29h0a.35.35,0,0,1,0-.07.42.42,0,0,1,.08-.13l.1-.07.07,0a.83.83,0,0,1,.26,0h.06a3,3,0,0,1-.36-.23s0-.06,0-.08a.35.35,0,0,0,0-.27v-.08l0,0a.52.52,0,0,0-.19-.2l-.14-.15a0,0,0,0,0-.06,0,2.15,2.15,0,0,1-1.09.1.05.05,0,0,0-.05,0A1.31,1.31,0,0,1,9,42a0,0,0,0,0,0,0,0,0,0,0,0,0,0c.15.15,0,.47,0,.47a0,0,0,0,0,0,0l0,0A.45.45,0,0,1,9.35,42.88Zm1.2-.86.19.19v0a2.19,2.19,0,0,1,0,.26v0a2.24,2.24,0,0,1-.4-.38h0v0a1.83,1.83,0,0,0,.09.65l-.08,0a.42.42,0,0,1,0-.85A.42.42,0,0,1,10.56,42Z"/><path class="cls-7" d="M5.87,43.26a.47.47,0,0,0,.19,0,.39.39,0,0,0,.14-.36v0a.24.24,0,0,0-.22-.2.22.22,0,0,0-.17,0,.35.35,0,0,0-.12.22s0,.1.15.14a.42.42,0,0,1-.17.07s-.05,0-.07,0a.05.05,0,0,0,0,.06A.48.48,0,0,0,5.87,43.26ZM6,43a0,0,0,0,0,0-.08c-.12,0-.14,0-.15-.06a.24.24,0,0,1,.08-.14.12.12,0,0,1,.09,0c.11,0,.13.08.14.13v0s0,.21-.09.23a.46.46,0,0,1-.19,0A.4.4,0,0,0,6,43Z"/><path class="cls-7" d="M4.51,42.55h0a.4.4,0,0,0-.35.16.56.56,0,0,0,0,.45h.06a.06.06,0,0,0,0-.07.41.41,0,0,1,.06-.17c0,.14.15.14.15.14a.35.35,0,0,0,.21-.13.21.21,0,0,0,0-.17A.24.24,0,0,0,4.51,42.55Zm.1.33a.24.24,0,0,1-.14.08s-.05,0-.06-.15a.05.05,0,0,0,0,0H4.34a.4.4,0,0,0-.12.15.41.41,0,0,1,0-.19c0-.05.2-.1.23-.1h0s.1,0,.13.13A.11.11,0,0,1,4.61,42.87Z"/><path class="cls-7" d="M28.63,45.28a.91.91,0,0,1-.74-.62v-.07c-.06-.28-.11-.52-.51-.58a.05.05,0,0,0-.06,0,.05.05,0,0,0,0,.06c.34.05.37.23.43.5v.07a1,1,0,0,0,.81.7,1.56,1.56,0,0,1,.73.55l0,0h0a0,0,0,0,0,0-.07A1.64,1.64,0,0,0,28.63,45.28Z"/><path class="cls-7" d="M29.33,41.65s.11-.28.37-.4a1.5,1.5,0,0,0-1.14-.13C28.94,41.15,29,41.35,29.33,41.65Z"/><path class="cls-7" d="M27,45.55a.05.05,0,0,0,0-.05h0a0,0,0,0,0,0,0,1.07,1.07,0,0,0,.07.58.05.05,0,0,0,0,0h0a0,0,0,0,0,0-.07A1,1,0,0,1,27,45.55Z"/><path class="cls-7" d="M28.08,45.59a0,0,0,0,0,0,.07.9.9,0,0,1,.26.53,0,0,0,0,0,0,0h0a.05.05,0,0,0,0-.05,1,1,0,0,0-.29-.6A0,0,0,0,0,28.08,45.59Z"/><path class="cls-7" d="M27.31,45.34a0,0,0,0,0,0-.06,0,0,0,0,0-.06,0,1.07,1.07,0,0,0,.15.71l0,0h0a0,0,0,0,0,0-.07A1,1,0,0,1,27.31,45.34Z"/><path class="cls-7" d="M24.1,46.65c-.16-.08-.24-.11-.38-.4a.05.05,0,0,0-.07,0,0,0,0,0,0,0,.07.73.73,0,0,0,.43.45l.11.06h0a0,0,0,0,0,0-.09Z"/><path class="cls-7" d="M28.54,45.61a.05.05,0,0,0-.07,0,0,0,0,0,0,0,.07.91.91,0,0,1,.5.45l0,.08a0,0,0,0,0,0,0h0a0,0,0,0,0,0-.07l0-.07A1,1,0,0,0,28.54,45.61Z"/><path class="cls-7" d="M26.64,45.54a0,0,0,0,0-.06,0,1.71,1.71,0,0,0,0,.63,0,0,0,0,0,0,0h0a0,0,0,0,0,0-.06,1.65,1.65,0,0,1,0-.59A0,0,0,0,0,26.64,45.54Z"/><path class="cls-7" d="M26.28,45.64a.05.05,0,0,0-.06,0,3.83,3.83,0,0,0,0,.66,0,0,0,0,0,0,0h0a0,0,0,0,0,0-.05,3.92,3.92,0,0,1,0-.64A.05.05,0,0,0,26.28,45.64Z"/><path class="cls-7" d="M24.55,46.54a.42.42,0,0,1-.27-.34.05.05,0,0,0-.06,0,.05.05,0,0,0,0,.06.52.52,0,0,0,.33.41h0l0,0a0,0,0,0,0,0-.07Z"/><path class="cls-7" d="M25.6,45.82a0,0,0,0,0,0-.06h0a0,0,0,0,0,0,0,1.78,1.78,0,0,0,0,.55.05.05,0,0,0,0,0h0a0,0,0,0,0,0-.06A1.71,1.71,0,0,1,25.6,45.82Z"/><path class="cls-7" d="M24.65,46.12a0,0,0,1,0-.1,0,.4.4,0,0,0,.19.3l0,0,0,0h0a.05.05,0,0,0,0-.07l0,0C24.74,46.3,24.65,46.23,24.65,46.12Z"/><path class="cls-7" d="M20,46a4.32,4.32,0,0,0,1.49.48,1.32,1.32,0,0,0,.7-.23,2.31,2.31,0,0,1,.51-.25c0,.11,0,.53.32.56h.1c.12,0,.17,0,.32.17a1.2,1.2,0,0,0,.85.45,1.09,1.09,0,0,0,.68-.3l.07-.06a.62.62,0,0,1,.63-.15,2.14,2.14,0,0,0,1.19-.08,1.14,1.14,0,0,1,1,0,5.74,5.74,0,0,0,2.84.09l0,0a1.06,1.06,0,0,0,.65.38.1.1,0,0,0,.1,0,.1.1,0,0,0,0-.11s-.08-.14,0-.54a1.85,1.85,0,0,0,1.66.11.1.1,0,0,0,0-.18,4.28,4.28,0,0,1-.37-.27l-.22-.17a1.07,1.07,0,0,0,.63-.09l.08,0c.23-.13.61-.34,1.1-1.43a.1.1,0,0,0,0-.13.11.11,0,0,0-.13,0,1.43,1.43,0,0,1-.54.2,2.33,2.33,0,0,0,.8-1.26.1.1,0,0,0-.18-.1,1,1,0,0,1-.35.2,2.86,2.86,0,0,0,.54-.93.1.1,0,0,0-.17-.11,2,2,0,0,1-.82.34,2.46,2.46,0,0,0,.66-.83.1.1,0,0,0,0-.12.11.11,0,0,0-.12,0,1.36,1.36,0,0,1-.66.14c.5-.58.59-1.21.42-2.66a.1.1,0,0,0-.1-.09.11.11,0,0,0-.11.08,1.84,1.84,0,0,1-1.37,1.42h-.09a1.6,1.6,0,0,0,.3-.38,2.31,2.31,0,0,0-.09-2.17.1.1,0,0,0-.17,0c-.15.18-.26.33-.34.44a1.16,1.16,0,0,1-.86.59A1.81,1.81,0,0,0,29.64,40a1.37,1.37,0,0,0-.56-.13,1.66,1.66,0,0,0-1.19.52,1.28,1.28,0,0,0-1.44.29c-.19.24-.2.23-.36.14l-.23-.12a1.63,1.63,0,0,0-1.68.07.1.1,0,0,0,0,.12.1.1,0,0,0,.11.07.79.79,0,0,1,.59.1.3.3,0,0,1,.07.24.28.28,0,0,1-.1.21.39.39,0,0,1-.27.09l-.25,0-.4,0a.6.6,0,0,1-.19-.08A1.38,1.38,0,0,0,23,41.3h0a.75.75,0,0,0-.67.34v0a.9.9,0,0,1-.51.62.56.56,0,0,0-.26.37,1.26,1.26,0,0,0,.08.82.8.8,0,0,0,.67.3l.17,0a1.31,1.31,0,0,0,.4.5h-.16a1.32,1.32,0,0,0-.46.15c-.21.11-.38.2-1.07-.08-.29-.12-.62-.11-1.3.33a.79.79,0,0,0-.4.71A.77.77,0,0,0,20,46Zm13-4.33a.1.1,0,0,0,.05.18,1.57,1.57,0,0,0,.7,0,1.64,1.64,0,0,1-1.19.81.1.1,0,0,0-.09.12.11.11,0,0,0,.11.09,4.76,4.76,0,0,0,1.49-.34,1.87,1.87,0,0,1-.81.91.1.1,0,0,0,0,0,7.61,7.61,0,0,1-1.64,0,8.15,8.15,0,0,0,1-1.36,0,0,0,0,0,0-.06,0,0,0,0,0-.05,0,1.91,1.91,0,0,1-.51.08l.07,0a3.54,3.54,0,0,0,1.5-1.65A1.76,1.76,0,0,1,33,41.69Zm-.82-1.76a1.25,1.25,0,0,1-.63.59l-.18,0-.15,0a3.8,3.8,0,0,0,.7-.8,0,0,0,0,0,0,0l0,0a5.06,5.06,0,0,0-.51,0,3,3,0,0,0,.94-.79A1.72,1.72,0,0,1,32.21,39.93Zm-8.33,1.82.41,0,.24,0a.62.62,0,0,0,.42-.14.49.49,0,0,0,.17-.36.5.5,0,0,0-.13-.4.61.61,0,0,0-.33-.15,1.54,1.54,0,0,1,1.13.13L26,41c.23.14.36.16.63-.19a1,1,0,0,1,1.1-.25l-.08.1a.1.1,0,0,0,0,.14.1.1,0,0,0,.14,0,1.69,1.69,0,0,1,1.25-.71h0a1.17,1.17,0,0,1,.56.16h0a1,1,0,0,1,.26.22.1.1,0,0,0,.16-.13,1.18,1.18,0,0,0-.26-.24,1.57,1.57,0,0,1,1.13-1,1.36,1.36,0,0,0,1-.67l.23-.3a3.23,3.23,0,0,1,.17.6,2.91,2.91,0,0,1-1,.86l-.13.07a0,0,0,0,0,0,.06.05.05,0,0,0,0,0,4,4,0,0,1,.62,0,4.51,4.51,0,0,1-.78.83c-.58.15-.87.44-.92,1.29a.1.1,0,0,0,.1.11.1.1,0,0,0,.11-.1c0-.91.39-1.06,1.09-1.16l.17,0h0l.58-.09a2,2,0,0,0,1.38-1.14c0,.25,0,.46,0,.65A3.49,3.49,0,0,1,32,42l-.21.13a0,0,0,0,0,0,.05.05.05,0,0,0,0,0,2.53,2.53,0,0,0,.6-.05,8.77,8.77,0,0,1-1,1.31.05.05,0,0,0,0,0,0,0,0,0,0,0,0,6,6,0,0,0,1,.07c.35,0,.64,0,.77,0a.1.1,0,0,0,.11,0,5.06,5.06,0,0,0,.74-.26A1.58,1.58,0,0,1,33,44.44a.1.1,0,0,0,0,.2,3.15,3.15,0,0,0,1-.16,3.08,3.08,0,0,1-.53.8,5.22,5.22,0,0,1-2.34-.9,0,0,0,0,0-.07,0,0,0,0,0,0,0,.07,5.39,5.39,0,0,0,2.3.9,1.44,1.44,0,0,1-.26.18l-.1.06a1.26,1.26,0,0,1-1-.13.1.1,0,0,0-.12.17c.34.24.57.41.75.55l.21.17a1.69,1.69,0,0,1-.38.06A6,6,0,0,1,31,45.27a.05.05,0,0,0-.07,0,.05.05,0,0,0,0,.07,6.09,6.09,0,0,0,1.3,1.09,1.66,1.66,0,0,1-.84-.3.1.1,0,0,0-.1,0,.1.1,0,0,0-.06.08,2.51,2.51,0,0,0,0,.64.88.88,0,0,1-.35-.26l0,0,0-.05h0a2.35,2.35,0,0,1-.35-.89,0,0,0,0,0-.06,0,0,0,0,0,0,0,.06,2.67,2.67,0,0,0,.31.85,5.58,5.58,0,0,1-2.73-.08,1.33,1.33,0,0,0-1.15,0,2,2,0,0,1-1,.08.84.84,0,0,0-.83.17l-.08.07c-.25.2-.63.51-1.25-.13a.53.53,0,0,0-.47-.24h-.09c-.07,0-.13-.25-.13-.38h.23a7.35,7.35,0,0,0,1-.15.89.89,0,0,0,.55-.4,1.23,1.23,0,0,1,.64-.4h0a1,1,0,0,1,.34,0,2,2,0,0,0,.47.08.59.59,0,0,0,.38-.13l.08-.06c.1-.08.14-.12.52-.13a.1.1,0,0,0,.07-.17,2,2,0,0,0-.39-.34,1.71,1.71,0,0,1-.22-.52,0,0,0,0,0,0,0,0,0,0,0,0,0,0,2.33,2.33,0,0,0-.18.34h-.06a1,1,0,0,0-.19-.58,0,0,0,0,0-.05,0,0,0,0,0,0,0,0v0a1,1,0,0,1-.25.57l-.08,0-.14,0a.86.86,0,0,0,.31-.56,1.18,1.18,0,0,0-.16-.94,1.17,1.17,0,0,0-.86-.37.05.05,0,0,0,0,0,0,0,0,0,0,0,.06.8.8,0,0,1,.3.66,1,1,0,0,1-.47.63.34.34,0,0,0-.16.16,1.33,1.33,0,0,1-.2-.27.62.62,0,0,0,.32-.56.8.8,0,0,0-.37-.7.74.74,0,0,1-.39-.45,1.58,1.58,0,0,0-.07-.17l-.05-.06A.68.68,0,0,0,23.87,41.76Zm-.08,4a1.11,1.11,0,0,1-.13-.95l.08.1a1.47,1.47,0,0,0,.67.58.76.76,0,0,1-.32.2Zm-.27-2a.53.53,0,0,0,.5,0,1.38,1.38,0,0,0,.17.25,1.15,1.15,0,0,0-.18.69A1.94,1.94,0,0,1,23.52,43.7Zm.12.6h-.06v-.05s0,0,0,0Zm.62-.29.09.08a.26.26,0,0,0,0,.13.24.24,0,0,0,.15.12l.13.06a.6.6,0,0,0,.25,0l.16,0a1.14,1.14,0,0,0,.39,0l.2,0a1.76,1.76,0,0,1,.57-.06,2,2,0,0,0-.1.61,1.56,1.56,0,0,1-.42-.07,1.12,1.12,0,0,0-.39,0h0a5.81,5.81,0,0,1-1.2-.35A1.06,1.06,0,0,1,24.27,44Zm.2,0a.26.26,0,0,1,.15-.17h0a1.1,1.1,0,0,0,.52-.71.82.82,0,0,0-.24-.64,1,1,0,0,1,.65.32,1.08,1.08,0,0,1,.14.86.79.79,0,0,1-.42.6h0a.62.62,0,0,1-.55.06l-.14-.06c-.05,0-.06,0-.1-.08A.22.22,0,0,1,24.46,44Zm1.35.23a1,1,0,0,0,.24-.49.86.86,0,0,1,.1.44A1.84,1.84,0,0,0,25.81,44.22Zm.71-.28a1.56,1.56,0,0,0,.46.76.9.9,0,0,0-.49.16l0,0a.55.55,0,0,1-.21.12A2.14,2.14,0,0,1,26.52,43.94Zm-4.69-.56a1.08,1.08,0,0,1-.05-.66.35.35,0,0,1,.16-.24,1.12,1.12,0,0,0,.61-.75.55.55,0,0,1,.46-.23h0a.57.57,0,0,1,.49.32,1.34,1.34,0,0,1,.06.15.94.94,0,0,0,.48.55.59.59,0,0,1,.27.52.42.42,0,0,1-.21.38c-.34.17-.4.14-.52.08h0a1,1,0,0,0-1,0A.69.69,0,0,1,21.83,43.38Zm1.19.23a.6.6,0,0,1,.38,0,2.21,2.21,0,0,0,.1.38.85.85,0,0,0,0,.2c0,.05,0,.11,0,.19A1.69,1.69,0,0,1,23,43.61Zm.18.63h-.06s0-.07,0-.1Zm-.62-.5h.08l.26-.09a1.56,1.56,0,0,0,.08.27,1.63,1.63,0,0,0,0,.36A1.16,1.16,0,0,1,22.59,43.74ZM20,44.85a1.75,1.75,0,0,1,.88-.36.6.6,0,0,1,.24,0c.78.32,1,.2,1.24.08a1.11,1.11,0,0,1,.39-.13,2.49,2.49,0,0,1,.63,0l.07.08,0,0,0,0h0a.05.05,0,0,0,0,0s0,0,0,0a1.21,1.21,0,0,1,.23.07l0,0a1.25,1.25,0,0,0,.19.19h.05a0,0,0,0,0,0,0s0,0,0,0A5.51,5.51,0,0,0,25,45a1.06,1.06,0,0,0-.45.37l0,0a1.34,1.34,0,0,1-.66-.56l-.14-.18a0,0,0,0,0,0,0,.05.05,0,0,0,0,0,1.34,1.34,0,0,0,.07,1.09l-.53.06H23c-.18,0-.37,0-.92.31s-.8.25-2-.26a.52.52,0,0,1-.08-1Z"/><path class="cls-7" d="M27.2,42.88a0,0,0,0,0,0,0h0a0,0,0,0,0,0-.07.52.52,0,0,0-.38-.26.56.56,0,0,0,0-.47,1.32,1.32,0,0,0,.23-.12,1.79,1.79,0,0,0,.74,0,.51.51,0,0,0-.22.42.52.52,0,0,0,.52.52l.11,0a2.67,2.67,0,0,0,.12.29h0a.35.35,0,0,1,0-.07.42.42,0,0,1,.08-.13l.1-.07.07,0a.83.83,0,0,1,.26,0h.06a3,3,0,0,1-.36-.23s0-.06,0-.08a.35.35,0,0,0,0-.27v-.08l0,0a.52.52,0,0,0-.19-.2l-.14-.15a0,0,0,0,0-.06,0,2.15,2.15,0,0,1-1.09.1.05.05,0,0,0-.05,0,1.31,1.31,0,0,1-.29.15,0,0,0,0,0,0,0,0,0,0,0,0,0,0c.15.15,0,.47,0,.47a0,0,0,0,0,0,0l0,0A.45.45,0,0,1,27.2,42.88ZM28.4,42l.19.19v0a2.19,2.19,0,0,1,0,.26v0a2.24,2.24,0,0,1-.4-.38h0v0a1.83,1.83,0,0,0,.09.65l-.08,0a.42.42,0,0,1,0-.85A.42.42,0,0,1,28.4,42Z"/><path class="cls-7" d="M23.71,43.26a.47.47,0,0,0,.19,0,.39.39,0,0,0,.14-.36v0a.24.24,0,0,0-.22-.2.22.22,0,0,0-.17,0,.35.35,0,0,0-.12.22s0,.1.15.14a.42.42,0,0,1-.17.07s-.05,0-.07,0a.05.05,0,0,0,0,.06A.48.48,0,0,0,23.71,43.26Zm.11-.23a0,0,0,0,0,0-.08c-.12,0-.14,0-.15-.06a.24.24,0,0,1,.08-.14.12.12,0,0,1,.09,0c.11,0,.13.08.14.13v0s0,.21-.09.23a.46.46,0,0,1-.19,0A.4.4,0,0,0,23.82,43Z"/><path class="cls-7" d="M22.36,42.55h0a.4.4,0,0,0-.35.16.56.56,0,0,0,0,.45h.06a.06.06,0,0,0,0-.07.41.41,0,0,1,.06-.17c0,.14.15.14.15.14a.35.35,0,0,0,.21-.13.21.21,0,0,0,0-.17A.24.24,0,0,0,22.36,42.55Zm.1.33a.24.24,0,0,1-.14.08s-.05,0-.06-.15a.05.05,0,0,0,0,0h-.05a.4.4,0,0,0-.12.15.41.41,0,0,1,0-.19c0-.05.2-.1.23-.1h0s.1,0,.13.13A.11.11,0,0,1,22.46,42.87Z"/><path class="cls-7" d="M25.11,69.9a.91.91,0,0,1-.74-.62V69.2c-.06-.28-.11-.52-.51-.58a.05.05,0,0,0-.06,0,.05.05,0,0,0,0,.06c.34.05.37.23.43.5v.07a1,1,0,0,0,.81.7,1.56,1.56,0,0,1,.73.55l0,0h0a0,0,0,0,0,0-.07A1.64,1.64,0,0,0,25.11,69.9Z"/><path class="cls-7" d="M25.81,66.27s.11-.28.37-.4A1.5,1.5,0,0,0,25,65.73C25.42,65.76,25.5,66,25.81,66.27Z"/><path class="cls-7" d="M23.47,70.16a.05.05,0,0,0,0-.05h0a0,0,0,0,0,0,0,1.07,1.07,0,0,0,.07.58.05.05,0,0,0,0,0h0a0,0,0,0,0,0-.07A1,1,0,0,1,23.47,70.16Z"/><path class="cls-7" d="M24.56,70.21a0,0,0,0,0,0,.07.9.9,0,0,1,.26.53,0,0,0,0,0,0,0h0a.05.05,0,0,0,0-.05,1,1,0,0,0-.29-.6A0,0,0,0,0,24.56,70.21Z"/><path class="cls-7" d="M23.79,70a0,0,0,0,0,0-.06,0,0,0,0,0-.06,0,1.07,1.07,0,0,0,.15.71l0,0h0a0,0,0,0,0,0-.07A1,1,0,0,1,23.79,70Z"/><path class="cls-7" d="M20.58,71.26c-.16-.08-.24-.11-.38-.4a.05.05,0,0,0-.07,0,0,0,0,0,0,0,.07.73.73,0,0,0,.43.45l.11.06h0a0,0,0,0,0,0-.09Z"/><path class="cls-7" d="M25,70.23a.05.05,0,0,0-.07,0,0,0,0,0,0,0,.07.91.91,0,0,1,.5.45l0,.08a0,0,0,0,0,0,0h0a0,0,0,0,0,0-.07l0-.07A1,1,0,0,0,25,70.23Z"/><path class="cls-7" d="M23.12,70.16a0,0,0,0,0-.06,0,1.71,1.71,0,0,0,0,.63,0,0,0,0,0,0,0h0a0,0,0,0,0,0-.06,1.65,1.65,0,0,1,0-.59A0,0,0,0,0,23.12,70.16Z"/><path class="cls-7" d="M22.76,70.25a.05.05,0,0,0-.06,0,3.83,3.83,0,0,0,0,.66,0,0,0,0,0,0,0h0a0,0,0,0,0,0-.05,3.92,3.92,0,0,1,0-.64A.05.05,0,0,0,22.76,70.25Z"/><path class="cls-7" d="M21,71.15a.42.42,0,0,1-.27-.34.05.05,0,0,0-.06,0,.05.05,0,0,0,0,.06.52.52,0,0,0,.33.41h0l0,0a0,0,0,0,0,0-.07Z"/><path class="cls-7" d="M22.08,70.44a0,0,0,0,0,0-.06h0a0,0,0,0,0,0,0A1.78,1.78,0,0,0,22,71a.05.05,0,0,0,0,0h0a0,0,0,0,0,0-.06A1.71,1.71,0,0,1,22.08,70.44Z"/><path class="cls-7" d="M21.13,70.74a0,0,0,1,0-.1,0,.4.4,0,0,0,.19.3l0,0,0,0h0a.05.05,0,0,0,0-.07l0,0C21.23,70.92,21.13,70.84,21.13,70.74Z"/><path class="cls-7" d="M18.32,66.91a.56.56,0,0,0-.26.37,1.26,1.26,0,0,0,.08.82.8.8,0,0,0,.67.3l.17,0a1.31,1.31,0,0,0,.4.5h-.16a1.32,1.32,0,0,0-.46.15c-.21.11-.38.2-1.07-.08-.29-.12-.62-.11-1.3.33A.79.79,0,0,0,16,70a.77.77,0,0,0,.51.63,4.32,4.32,0,0,0,1.49.48,1.32,1.32,0,0,0,.7-.23,2.31,2.31,0,0,1,.51-.25c0,.11,0,.53.32.56h.1c.12,0,.17,0,.32.17a1.2,1.2,0,0,0,.85.45,1.09,1.09,0,0,0,.68-.3l.07-.06a.62.62,0,0,1,.63-.15,2.14,2.14,0,0,0,1.19-.08,1.14,1.14,0,0,1,1,0,5.74,5.74,0,0,0,2.84.09l0,0a1.06,1.06,0,0,0,.65.38.1.1,0,0,0,.1,0,.1.1,0,0,0,0-.11s-.08-.14,0-.54a1.85,1.85,0,0,0,1.66.11.1.1,0,0,0,0-.18,4.28,4.28,0,0,1-.37-.27L29,70.48a1.07,1.07,0,0,0,.63-.09l.08,0c.23-.13.61-.34,1.1-1.43a.1.1,0,0,0,0-.13.11.11,0,0,0-.13,0,1.43,1.43,0,0,1-.54.2,2.33,2.33,0,0,0,.8-1.26.1.1,0,0,0-.18-.1,1,1,0,0,1-.35.2,2.86,2.86,0,0,0,.54-.93.1.1,0,0,0-.17-.11,2,2,0,0,1-.82.34,2.46,2.46,0,0,0,.66-.83.1.1,0,0,0,0-.12.11.11,0,0,0-.12,0,1.36,1.36,0,0,1-.66.14c.5-.58.59-1.21.42-2.66a.1.1,0,0,0-.1-.09.11.11,0,0,0-.11.08A1.84,1.84,0,0,1,28.64,65h-.09a1.6,1.6,0,0,0,.3-.38,2.31,2.31,0,0,0-.09-2.17.1.1,0,0,0-.17,0c-.15.18-.26.33-.34.44a1.16,1.16,0,0,1-.86.59,1.81,1.81,0,0,0-1.26,1.1,1.37,1.37,0,0,0-.56-.13,1.66,1.66,0,0,0-1.19.52,1.28,1.28,0,0,0-1.44.29c-.19.24-.2.23-.36.14l-.23-.12a1.63,1.63,0,0,0-1.68.07.1.1,0,0,0,0,.12.1.1,0,0,0,.11.07.79.79,0,0,1,.59.1.3.3,0,0,1,.07.24.28.28,0,0,1-.1.21.39.39,0,0,1-.27.09l-.25,0-.4,0a.6.6,0,0,1-.19-.08,1.38,1.38,0,0,0-.68-.18h0a.75.75,0,0,0-.67.34v0A.9.9,0,0,1,18.32,66.91Zm.75,1.45h.08l.26-.09a1.56,1.56,0,0,0,.08.27,1.63,1.63,0,0,0,0,.36A1.16,1.16,0,0,1,19.07,68.36Zm.43-.13a.6.6,0,0,1,.38,0,2.21,2.21,0,0,0,.1.38.85.85,0,0,0,0,.2c0,.05,0,.11,0,.19A1.69,1.69,0,0,1,19.51,68.23Zm.18.63h-.06s0-.07,0-.1Zm-1.12,1.85c-.56.34-.8.25-2-.26a.52.52,0,0,1-.08-1,1.75,1.75,0,0,1,.88-.36.6.6,0,0,1,.24,0c.78.32,1,.2,1.24.08a1.11,1.11,0,0,1,.39-.13,2.49,2.49,0,0,1,.63,0l.07.08,0,0,0,0h0a.05.05,0,0,0,0,0s0,0,0,0a1.21,1.21,0,0,1,.23.07l0,0a1.25,1.25,0,0,0,.19.19h.05a0,0,0,0,0,0,0s0,0,0,0a5.51,5.51,0,0,0,.84.26A1.06,1.06,0,0,0,21,70l0,0a1.34,1.34,0,0,1-.66-.56l-.14-.18a0,0,0,0,0,0,0,.05.05,0,0,0,0,0,1.34,1.34,0,0,0,.07,1.09l-.53.06h-.13C19.31,70.4,19.12,70.38,18.57,70.71ZM21,69l.13.06a.6.6,0,0,0,.25,0l.16,0A1.14,1.14,0,0,0,22,69l.2,0a1.76,1.76,0,0,1,.57-.06,2,2,0,0,0-.1.61,1.56,1.56,0,0,1-.42-.07,1.12,1.12,0,0,0-.39,0h0a5.81,5.81,0,0,1-1.2-.35,1.06,1.06,0,0,1,.13-.48l.09.08a.26.26,0,0,0,0,.13A.24.24,0,0,0,21,69Zm-.08-.36a.26.26,0,0,1,.15-.17h0a1.1,1.1,0,0,0,.52-.71.82.82,0,0,0-.24-.64,1,1,0,0,1,.65.32,1.08,1.08,0,0,1,.14.86.79.79,0,0,1-.42.6h0a.62.62,0,0,1-.55.06l-.14-.06c-.05,0-.06,0-.1-.08A.22.22,0,0,1,20.94,68.6Zm1.35.23a1,1,0,0,0,.24-.49.86.86,0,0,1,.1.44A1.84,1.84,0,0,0,22.29,68.83Zm.71-.28a1.56,1.56,0,0,0,.46.76.9.9,0,0,0-.49.16l0,0a.55.55,0,0,1-.21.12A2.14,2.14,0,0,1,23,68.55Zm-2.5.7a1.94,1.94,0,0,1-.49-.94.53.53,0,0,0,.5,0,1.38,1.38,0,0,0,.17.25A1.15,1.15,0,0,0,20.5,69.25Zm-.37-.33h-.06v-.05s0,0,0,0Zm.77,1.15a.76.76,0,0,1-.32.2l-.29.06a1.11,1.11,0,0,1-.13-.95l.08.1A1.47,1.47,0,0,0,20.89,70.06ZM29.5,66.3a.1.1,0,0,0,.05.18,1.57,1.57,0,0,0,.7,0,1.64,1.64,0,0,1-1.19.81.1.1,0,0,0-.09.12.11.11,0,0,0,.11.09,4.76,4.76,0,0,0,1.49-.34,1.87,1.87,0,0,1-.81.91.1.1,0,0,0,0,0,7.61,7.61,0,0,1-1.64,0,8.15,8.15,0,0,0,1-1.36,0,0,0,0,0,0-.06,0,0,0,0,0-.05,0,1.91,1.91,0,0,1-.51.08l.07,0A3.54,3.54,0,0,0,30.08,65,1.76,1.76,0,0,1,29.5,66.3Zm-.82-1.76a1.25,1.25,0,0,1-.63.59l-.18,0-.15,0a3.8,3.8,0,0,0,.7-.8,0,0,0,0,0,0,0l0,0a5.06,5.06,0,0,0-.51,0,3,3,0,0,0,.94-.79A1.72,1.72,0,0,1,28.69,64.55Zm-8.33,1.82.41,0,.24,0a.62.62,0,0,0,.42-.14.49.49,0,0,0,.17-.36.5.5,0,0,0-.13-.4.61.61,0,0,0-.33-.15,1.54,1.54,0,0,1,1.13.13l.21.11c.23.14.36.16.63-.19a1,1,0,0,1,1.1-.25l-.08.1a.1.1,0,0,0,0,.14.1.1,0,0,0,.14,0,1.69,1.69,0,0,1,1.25-.71h0a1.17,1.17,0,0,1,.56.16h0a1,1,0,0,1,.26.22.1.1,0,0,0,.16-.13,1.18,1.18,0,0,0-.26-.24,1.57,1.57,0,0,1,1.13-1,1.36,1.36,0,0,0,1-.67l.23-.3a3.23,3.23,0,0,1,.17.6,2.91,2.91,0,0,1-1,.86l-.13.07a0,0,0,0,0,0,.06.05.05,0,0,0,0,0,4,4,0,0,1,.62,0,4.51,4.51,0,0,1-.78.83c-.58.15-.87.44-.92,1.29a.1.1,0,0,0,.1.11.1.1,0,0,0,.11-.1c0-.91.39-1.06,1.09-1.16l.17,0h0l.58-.09a2,2,0,0,0,1.38-1.14c0,.25,0,.46,0,.65a3.49,3.49,0,0,1-1.55,1.81l-.21.13a0,0,0,0,0,0,.05.05.05,0,0,0,0,0,2.53,2.53,0,0,0,.6-.05,8.77,8.77,0,0,1-1,1.31.05.05,0,0,0,0,0,0,0,0,0,0,0,0,6,6,0,0,0,1,.07c.35,0,.64,0,.77,0a.1.1,0,0,0,.11,0A5.06,5.06,0,0,0,30.6,68a1.58,1.58,0,0,1-1.13,1.09.1.1,0,0,0,0,.2,3.15,3.15,0,0,0,1-.16,3.08,3.08,0,0,1-.53.8,5.22,5.22,0,0,1-2.34-.9,0,0,0,0,0-.07,0,0,0,0,0,0,0,.07,5.39,5.39,0,0,0,2.3.9,1.44,1.44,0,0,1-.26.18l-.1.06a1.26,1.26,0,0,1-1-.13.1.1,0,0,0-.12.17c.34.24.57.41.75.55l.21.17a1.69,1.69,0,0,1-.38.06,6,6,0,0,1-1.43-1.15.05.05,0,0,0-.07,0,.05.05,0,0,0,0,.07A6.09,6.09,0,0,0,28.74,71a1.66,1.66,0,0,1-.84-.3.1.1,0,0,0-.1,0,.1.1,0,0,0-.06.08,2.51,2.51,0,0,0,0,.64.88.88,0,0,1-.35-.26l0,0,0-.05h0a2.35,2.35,0,0,1-.35-.89,0,0,0,0,0-.06,0,0,0,0,0,0,0,.06,2.67,2.67,0,0,0,.31.85A5.58,5.58,0,0,1,24.42,71a1.33,1.33,0,0,0-1.15,0,2,2,0,0,1-1,.08.84.84,0,0,0-.83.17l-.08.07c-.25.2-.63.51-1.25-.13a.53.53,0,0,0-.47-.24h-.09c-.07,0-.13-.25-.13-.38h.23a7.35,7.35,0,0,0,1-.15.89.89,0,0,0,.55-.4,1.23,1.23,0,0,1,.64-.4h0a1,1,0,0,1,.34,0,2,2,0,0,0,.47.08.59.59,0,0,0,.38-.13l.08-.06c.1-.08.14-.12.52-.13a.1.1,0,0,0,.07-.17,2,2,0,0,0-.39-.34,1.71,1.71,0,0,1-.22-.52,0,0,0,0,0,0,0,0,0,0,0,0,0,0,2.33,2.33,0,0,0-.18.34h-.06a1,1,0,0,0-.19-.58,0,0,0,0,0-.05,0,0,0,0,0,0,0,0v0a1,1,0,0,1-.25.57l-.08,0-.14,0a.86.86,0,0,0,.31-.56,1.18,1.18,0,0,0-.16-.94,1.17,1.17,0,0,0-.86-.37.05.05,0,0,0,0,0,0,0,0,0,0,0,.06.8.8,0,0,1,.3.66,1,1,0,0,1-.47.63.34.34,0,0,0-.16.16,1.33,1.33,0,0,1-.2-.27.62.62,0,0,0,.32-.56.8.8,0,0,0-.37-.7.74.74,0,0,1-.39-.45,1.58,1.58,0,0,0-.07-.17l-.05-.06A.68.68,0,0,0,20.36,66.37Zm-1.32,0a.55.55,0,0,1,.46-.23h0a.57.57,0,0,1,.49.32,1.34,1.34,0,0,1,.06.15.94.94,0,0,0,.48.55.59.59,0,0,1,.27.52.42.42,0,0,1-.21.38c-.34.17-.4.14-.52.08h0a1,1,0,0,0-1,0,.69.69,0,0,1-.76-.15,1.08,1.08,0,0,1-.05-.66.35.35,0,0,1,.16-.24A1.12,1.12,0,0,0,19,66.35Z"/><path class="cls-7" d="M23.68,67.5a0,0,0,0,0,0,0h0a0,0,0,0,0,0-.07.52.52,0,0,0-.38-.26.56.56,0,0,0,0-.47,1.32,1.32,0,0,0,.23-.12,1.79,1.79,0,0,0,.74,0,.51.51,0,0,0-.22.42.52.52,0,0,0,.52.52l.11,0a2.67,2.67,0,0,0,.12.29h0a.35.35,0,0,1,0-.07A.42.42,0,0,1,25,67.6l.1-.07.07,0a.83.83,0,0,1,.26,0h.06a3,3,0,0,1-.36-.23s0-.06,0-.08a.35.35,0,0,0,0-.27v-.08l0,0a.52.52,0,0,0-.19-.2l-.14-.15a0,0,0,0,0-.06,0,2.15,2.15,0,0,1-1.09.1.05.05,0,0,0-.05,0,1.31,1.31,0,0,1-.29.15,0,0,0,0,0,0,0,0,0,0,0,0,0,0c.15.15,0,.47,0,.47a0,0,0,0,0,0,0l0,0A.45.45,0,0,1,23.68,67.5Zm1.2-.86.19.19v0a2.19,2.19,0,0,1,0,.26v0a2.24,2.24,0,0,1-.4-.38h0v0a1.83,1.83,0,0,0,.09.65l-.08,0a.42.42,0,0,1,0-.85A.42.42,0,0,1,24.88,66.63Z"/><path class="cls-7" d="M20.19,67.88a.47.47,0,0,0,.19,0,.39.39,0,0,0,.14-.36v0a.24.24,0,0,0-.22-.2.22.22,0,0,0-.17,0,.35.35,0,0,0-.12.22s0,.1.15.14a.42.42,0,0,1-.17.07s-.05,0-.07,0a.05.05,0,0,0,0,.06A.48.48,0,0,0,20.19,67.88Zm.11-.23a0,0,0,0,0,0-.08c-.12,0-.14,0-.15-.06a.24.24,0,0,1,.08-.14.12.12,0,0,1,.09,0c.11,0,.13.08.14.13v0s0,.21-.09.23a.46.46,0,0,1-.19,0A.4.4,0,0,0,20.31,67.65Z"/><path class="cls-7" d="M18.54,67.78h0a.06.06,0,0,0,0-.07.41.41,0,0,1,.06-.17c0,.14.15.14.15.14a.35.35,0,0,0,.21-.13.21.21,0,0,0,0-.17.24.24,0,0,0-.21-.21h0a.4.4,0,0,0-.35.16.56.56,0,0,0,0,.45Zm0-.43c0-.05.2-.1.23-.1h0s.1,0,.13.13a.11.11,0,0,1,0,.1.24.24,0,0,1-.14.08s-.05,0-.06-.15a.05.05,0,0,0,0,0h-.05a.4.4,0,0,0-.12.15A.41.41,0,0,1,18.56,67.35Z"/><path class="cls-7" d="M24,26.65c.73-1.14,1.84-2.87,1.14-4.3A2.63,2.63,0,0,0,23,20.85a2.45,2.45,0,0,0-2.2,1,2,2,0,0,0,0,1.94A1.18,1.18,0,0,0,22,24.3a.76.76,0,0,0,.51-.34.87.87,0,0,0,.12-.63A1,1,0,0,0,22,22.7a1,1,0,0,0-.41.09.74.74,0,0,1,.26-.66,1.27,1.27,0,0,1,1.32-.26,1.72,1.72,0,0,1,1,.87,1.33,1.33,0,0,1,.19,1l0,.13c-.2.61-.4,1.24-2.22,2A.1.1,0,0,0,22,26a1.1,1.1,0,0,0,.88.36,4.33,4.33,0,0,0-.76,2.67,11.68,11.68,0,0,0-1.47-2.33l-.2-.26c-1-1.33-.52-2.22,0-3.16a.1.1,0,0,0,0-.1h0V22.08a.08.08,0,0,0-.08-.08H15.75a.08.08,0,0,0-.08.08v1.15h0a.1.1,0,0,0,0,.1c.51.94,1,1.82,0,3.16l-.19.25a11.44,11.44,0,0,0-1.52,2.41,4.29,4.29,0,0,0-.73-2.74,1.09,1.09,0,0,0,.89-.35.1.1,0,0,0,0-.17c-1.81-.78-2-1.42-2.2-2l0-.13a1.34,1.34,0,0,1,.2-1,1.72,1.72,0,0,1,1-.86,1.27,1.27,0,0,1,1.31.28.74.74,0,0,1,.25.67.88.88,0,0,0-.41-.1,1,1,0,0,0-.68.63.86.86,0,0,0,.11.63.76.76,0,0,0,.51.34,1.19,1.19,0,0,0,1.21-.48,2,2,0,0,0,0-1.95,2.45,2.45,0,0,0-2.19-1A2.63,2.63,0,0,0,11,22.32c-.72,1.42.38,3.16,1.1,4.31a8.17,8.17,0,0,1,.51.88,2,2,0,0,1,0,2.17,1,1,0,0,0-.21-.24.87.87,0,0,0-.94.18,1,1,0,0,0-.06,1.21.9.9,0,0,0,.64.45l.18,0A1.29,1.29,0,0,0,13,31a3.88,3.88,0,0,0,.64-.92c-.39,1.53-.13,3.32,1.9,5.09v.74h5v-.68l0,0c2-1.72,2.32-3.47,2-5a4.07,4.07,0,0,0,.56.77,1.28,1.28,0,0,0,.81.3h.17a.89.89,0,0,0,.64-.45,1,1,0,0,0,0-1.21.87.87,0,0,0-.94-.19.93.93,0,0,0-.22.23,2,2,0,0,1,0-2.17A8.18,8.18,0,0,1,24,26.65Zm-8.19-4.48h4.46v1H15.83Zm-3,8.7a1,1,0,0,1-.82.24.7.7,0,0,1-.5-.36.86.86,0,0,1,0-1,.78.78,0,0,1,.51-.2.3.3,0,0,1,.17,0,1,1,0,0,1,.24.31.1.1,0,0,0,.08.06.09.09,0,0,0,.09,0,2.17,2.17,0,0,0,.14-2.5,8.16,8.16,0,0,0-.52-.91c-.74-1.18-1.75-2.8-1.09-4.12a2.43,2.43,0,0,1,2-1.36,2.22,2.22,0,0,1,2,.92,1.82,1.82,0,0,1,0,1.74,1,1,0,0,1-1,.39.56.56,0,0,1-.37-.25.66.66,0,0,1-.09-.47.81.81,0,0,1,.5-.47h0a1.13,1.13,0,0,1,.41.13l0,0a.1.1,0,0,0,.09,0,.1.1,0,0,0,0-.08,1,1,0,0,0-.3-1,1.5,1.5,0,0,0-1.5-.33,1.9,1.9,0,0,0-1.14,1,1.54,1.54,0,0,0-.22,1.17l0,.13c.19.61.4,1.29,2.16,2.09a.79.79,0,0,1-.67.2H13a.1.1,0,0,0-.09.05.1.1,0,0,0,0,.1C13.73,27.66,14.36,29.23,12.84,30.86Zm7.46,4.86H15.72v-.48h4.58Zm.16-.69h-4.8c-3.8-3.31-1.26-6.59,0-8.17l.2-.26a2.6,2.6,0,0,0,.12-3.22h4.28a2.61,2.61,0,0,0,.11,3.23l.2.26C21.72,28.45,24.25,31.74,20.45,35Zm3-5.09a.12.12,0,0,0,.09,0,.1.1,0,0,0,.08-.06.92.92,0,0,1,.24-.3.69.69,0,0,1,.68.16.86.86,0,0,1,0,1,.7.7,0,0,1-.5.35,1,1,0,0,1-.81-.24c-1.51-1.65-.88-3.22-.05-4.53a.1.1,0,0,0-.09-.15h-.15a.8.8,0,0,1-.66-.2c1.76-.77,2-1.46,2.18-2.07l0-.13a1.53,1.53,0,0,0-.2-1.16,1.9,1.9,0,0,0-1.13-1,1.5,1.5,0,0,0-1.5.32,1,1,0,0,0-.31,1,.1.1,0,0,0,0,.08.1.1,0,0,0,.09,0h0a1.19,1.19,0,0,1,.42-.12.81.81,0,0,1,.49.48.66.66,0,0,1-.1.47.56.56,0,0,1-.38.25,1,1,0,0,1-1-.4A1.83,1.83,0,0,1,21,22a2.24,2.24,0,0,1,2-.92,2.43,2.43,0,0,1,2,1.38c.65,1.32-.38,2.93-1.13,4.1a8.24,8.24,0,0,0-.53.91A2.17,2.17,0,0,0,23.43,29.95Z"/><path class="cls-7" d="M20.38,29.08a1.3,1.3,0,0,1-.15,1c-.26-.18-.51-.34-.73-.46.16-.14.3-.27.41-.39.28-.3.39-.57.3-.78s-.33-.32-.73-.34a2.51,2.51,0,0,0-1.92.65c-.63-.22-.78-.59-.9-1.67a.1.1,0,0,0-.07-.08.1.1,0,0,0-.1,0,1.37,1.37,0,0,0-.53,1.4c-.39.13-.63.46-.79,1a.1.1,0,0,0,.14.11,2.07,2.07,0,0,1,1.36-.1l.22.12c-.08.14-.15.28-.22.43s-.22.49-.3.72a2.32,2.32,0,0,0-1.1-.24.73.73,0,0,0-.62.25.65.65,0,0,0,0,.6,2.47,2.47,0,0,0,1.17,1.1l0,.05a2.42,2.42,0,0,1-.88.73.1.1,0,0,0,0,.19,2.65,2.65,0,0,0,1.21,0,1.32,1.32,0,0,0,.87.67h0A.1.1,0,0,0,17,34a1.89,1.89,0,0,1-.19-1.19,3.58,3.58,0,0,0,.62.07,2.47,2.47,0,0,0,1.22-.31l.13-.06a4.56,4.56,0,0,0,.83-.56,3.43,3.43,0,0,0,.72.39,1,1,0,0,0,.37.08.57.57,0,0,0,.43-.17,1.14,1.14,0,0,0,0-1.23,1.15,1.15,0,0,0-.1-.16,1.39,1.39,0,0,1,.84-.07.09.09,0,0,0,.1,0,.1.1,0,0,0,0-.1,1.18,1.18,0,0,0-1-.63,1.28,1.28,0,0,0-.51-1,.1.1,0,0,0-.17.08Zm-3.63.2a2.3,2.3,0,0,0-1.33,0,1,1,0,0,1,.57-.7v0c0,.13.05.23.05.24a.1.1,0,0,0,.2,0l0-.2v0l0-.12a.09.09,0,0,0,0,0,1.1,1.1,0,0,1,.32-1.11c.11.87.29,1.32.93,1.58a3.54,3.54,0,0,0-.42.53Zm.09.82a3.18,3.18,0,0,1,1.29-1.52.85.85,0,0,0,.44.7h0l0,0a.05.05,0,0,0,0-.07.79.79,0,0,1-.4-.67,2.4,2.4,0,0,1,1.24-.24c.31,0,.5.1.55.22h0a1,1,0,0,0-.61.22.05.05,0,0,0,0,.07h0l0,0a.93.93,0,0,1,.52-.19.8.8,0,0,1-.25.46,15.57,15.57,0,0,1-1.92,1.57,2.4,2.4,0,0,0-.54.57l-.1-.05,0,0L16.83,31l-.3-.15C16.62,30.59,16.72,30.36,16.84,30.1Zm1.39.49a3.3,3.3,0,0,1,.23.24l.32.36c-.69.29-.87.31-1.31.11a2.18,2.18,0,0,1,.47-.5Zm-2.05,2.68c0-.14-.1-.26-.1-.26a.1.1,0,0,0-.19.07,1.88,1.88,0,0,0,.07.2,2.72,2.72,0,0,1-.8,0,2.63,2.63,0,0,0,.74-.68l0-.08a3.78,3.78,0,0,0,.64.22h.06a1.94,1.94,0,0,0,.12,1.11A1.3,1.3,0,0,1,16.18,33.27Zm2.56-1-.15.07a2.5,2.5,0,0,1-2,.18,2.68,2.68,0,0,1-1.85-1.28.62.62,0,0,1,0-.3c.26,0,.4.1.48.28a.05.05,0,0,0,0,0h0a.05.05,0,0,0,0-.07.59.59,0,0,0-.55-.34s0,0,0,0a.56.56,0,0,1,.46-.17h.07a2.19,2.19,0,0,1,1,.25c0,.33,0,.54-.3.62a.05.05,0,0,0,0,.1h0a.57.57,0,0,0,.37-.67l.3.15.32.17,0,0,.17.08h0c.61.3.8.3,1.67-.07l.25.24.11.1.16.14A4.4,4.4,0,0,1,18.73,32.31ZM21,32.09,20.92,32a1.77,1.77,0,0,0-.65-.48.05.05,0,0,0-.06,0,0,0,0,0,0,0,.06,1.71,1.71,0,0,1,.61.45l.07.06a.56.56,0,0,1-.49,0,3.5,3.5,0,0,1-1-.61l-.17-.16-.09-.08L19,31.16h0c-.14-.15-.28-.3-.4-.45l-.22-.23c.32-.24.64-.49.93-.74a8.09,8.09,0,0,1,1,.68l.06,0a2,2,0,0,1,.56.62A1,1,0,0,1,21,32.09Zm-.41-2.74a1,1,0,0,1,.25.74.1.1,0,0,0,.1.1,1,1,0,0,1,.77.35,1.48,1.48,0,0,0-.77.13l-.09-.08-.16-.15-.06-.05-.25-.2A1.32,1.32,0,0,0,20.6,29.35Z"/><circle class="cls-7" cx="19.2" cy="28.49" r="0.07"/><circle class="cls-7" cx="20.61" cy="31.3" r="0.07"/><circle class="cls-7" cx="15.46" cy="30.89" r="0.07"/><path class="cls-7" d="M19.59,30.72a.5.5,0,0,0-.11.42.05.05,0,0,0,0,0h0a.05.05,0,0,0,0-.06.4.4,0,0,1,.09-.34.63.63,0,0,1,.47-.21.05.05,0,0,0,0-.1A.74.74,0,0,0,19.59,30.72Z"/><path class="cls-7" d="M15.16,21.48l.06,0,.44,0H16a.08.08,0,0,0,.07,0,.08.08,0,0,0,0-.08,3.81,3.81,0,0,0-2.26-1.78l-.26-.11a6,6,0,0,0-4,0l-.08,0a5.52,5.52,0,0,0-2.26,1.3,5.86,5.86,0,0,0-1,1.09L6.1,22l-.18.19h0l-.53.22A1.94,1.94,0,0,0,4.21,24a4.45,4.45,0,0,0-.06,1.63.24.24,0,0,0,.1.13c.06,0,.15,0,.27-.09a2.41,2.41,0,0,0,.2-.26l0-.06a2.48,2.48,0,0,0,.16-.27L5,25a2.58,2.58,0,0,0,.12-.3l0-.05a2.7,2.7,0,0,0,.09-.35l0-.17a.94.94,0,0,1,.26-.65,1.57,1.57,0,0,1,.25-.19.7.7,0,0,1-.1.15l-.09.11a.89.89,0,0,0-.15.51,3.69,3.69,0,0,1-.54,1.38c-.16.16-.25.48-.12.62h0a.21.21,0,0,0,.16.07A.7.7,0,0,0,5.3,26l.19-.14a2.39,2.39,0,0,0,1.27-2.14c0-.15,0-.27,0-.39A1.7,1.7,0,0,1,7,22.06s0,0,0,0a6.49,6.49,0,0,1,3.61-2.15l.38,0a5,5,0,0,1,1.67,0,3.34,3.34,0,0,0-.55,0,4.63,4.63,0,0,0-2,.74A3.29,3.29,0,0,0,8.71,24a.08.08,0,0,0,.12.06,13.74,13.74,0,0,0,1.32-1.28l.32-.45a4.8,4.8,0,0,1,.8-1A2.84,2.84,0,0,1,15.16,21.48ZM6.57,23.36c0,.11,0,.24,0,.38a2.26,2.26,0,0,1-1.21,2l-.19.14C5,26,4.9,26,4.86,26a.4.4,0,0,1,.11-.4,3.65,3.65,0,0,0,.58-1.48.76.76,0,0,1,.13-.44l.07-.09a.76.76,0,0,0,.19-.41h0a.08.08,0,0,0,0-.08l-.05,0h0a1.41,1.41,0,0,0-.47.31,1.08,1.08,0,0,0-.31.75l0,.16a2.4,2.4,0,0,1-.64,1.28c-.06.06-.08.06-.08.06a.08.08,0,0,1,0,0,3.94,3.94,0,0,1,.08-1.53,1.79,1.79,0,0,1,1.09-1.52L6,22.33l0,0,.05-.05a1.25,1.25,0,0,0,.15-.16l.1-.11.5.1A1.85,1.85,0,0,0,6.57,23.36Zm3.76-1.16-.32.45a15.93,15.93,0,0,1-1.16,1.15,3.09,3.09,0,0,1,1.34-3.09A4.47,4.47,0,0,1,12.13,20a4.4,4.4,0,0,1,1.79.26.08.08,0,0,0,.1,0,.08.08,0,0,0,0-.1,4.55,4.55,0,0,0-3-.41l-.37,0a6.62,6.62,0,0,0-3.7,2.19l-.49-.1a5.31,5.31,0,0,1,.88-.93A5.39,5.39,0,0,1,9.5,19.63l.08,0a5.8,5.8,0,0,1,3.89,0l.26.11a3.67,3.67,0,0,1,2.11,1.59h-.59a3,3,0,0,0-4.08-.15A4.92,4.92,0,0,0,10.33,22.2Z"/><path class="cls-7" d="M22.62,17.82a13.36,13.36,0,0,0-1.9,1.71l-.07.08c-.1.12-.21.25-.32.4a6.31,6.31,0,0,1,1-1.22c.56-.5,1.19-1.25,1.61-3.72a.08.08,0,0,0,0-.08.08.08,0,0,0-.09,0,10.37,10.37,0,0,0-3.17,3.06v0a1.88,1.88,0,0,0-.43-.37c.13-.39.24-.78.34-1.15h0a2.62,2.62,0,0,0,.41-.88.08.08,0,0,0,0-.06.08.08,0,0,0-.05,0h-.13a7,7,0,0,0,.11-2.45A.08.08,0,0,0,19.8,13a.07.07,0,0,0-.08.06,20,20,0,0,1-1.19,2.5s0,0,0,0a1.61,1.61,0,0,0-.79.58l-.07.08a1.81,1.81,0,0,0-.75-1.83.08.08,0,0,0-.1,0,1.73,1.73,0,0,0-.5,2,2.07,2.07,0,0,0-.62-.49c-.18-.5-.45-1.18-.69-1.78s-.51-1.26-.52-1.35a.08.08,0,0,0-.08-.07h0a.08.08,0,0,0-.08.07,8.78,8.78,0,0,0,.2,2.86H14.3a.08.08,0,0,0-.06,0,.08.08,0,0,0,0,.07A3.72,3.72,0,0,0,14.78,17a6.6,6.6,0,0,0-1.18-1.12l-.35-.23-.4-.26a7.45,7.45,0,0,0-2.68-1,.09.09,0,0,0-.08,0,.08.08,0,0,0,0,.08l.13.31c.28.7.49,1.2,2.15,2a10,10,0,0,1,2.39,1.81l0,.14A16.29,16.29,0,0,0,11.08,17a8.78,8.78,0,0,0-1.4-.33,7.84,7.84,0,0,1-2.18-.69.08.08,0,0,0-.1,0,.08.08,0,0,0,0,.1s.46.68.71,1.1,1.34.79,2.49,1.16l.58.18c.66.21,1,.3,1.93.68a5.42,5.42,0,0,1,3.15,2.24.08.08,0,0,0,.07,0h0l.36,0h.61a.08.08,0,0,0,.06,0h0a.08.08,0,0,0,.06,0l.73,0h0a.08.08,0,0,0,.08-.07s0-.12,0-.22a5.1,5.1,0,0,1,.52-2.24h.32l-.08.12a4.87,4.87,0,0,0-.53,2.33.08.08,0,0,0,0,.06l.06,0h0l.63,0h.49s0,0,0,0,0,0,0,0a.08.08,0,0,0,.06,0l.8,0h0a4.18,4.18,0,0,1,3.25-.67,6.62,6.62,0,0,1,3.56,2.7,15.1,15.1,0,0,0,1.3,1,.08.08,0,0,0,.07,0,.08.08,0,0,0,0-.06,5.21,5.21,0,0,0,0-1.49,4.24,4.24,0,0,0-2-2.71,6.5,6.5,0,0,0-3.76-.56,6.84,6.84,0,0,1,2.07-.32l.21,0a4.71,4.71,0,0,1,2.2.69,9.23,9.23,0,0,1,1.51,1.4,1.54,1.54,0,0,0,.18.21c.05.05.12.12.13.15a.54.54,0,0,1,0,.17,1.92,1.92,0,0,0,0,.21.55.55,0,0,0,0,.24l0,.06a.13.13,0,0,0,0,.11h0a.31.31,0,0,1,0,.12h0l0,.08a.94.94,0,0,0,0,.74v0l0,.08a2,2,0,0,1-.15,1.53.08.08,0,0,0,0,.06s0,0,0,0a.08.08,0,0,0,.07,0h0a2.42,2.42,0,0,0,1.4-.62.08.08,0,0,0,0-.07h0a.08.08,0,0,0,0-.06,1.42,1.42,0,0,1-.45-.45,1,1,0,0,1-.13-.34,1.45,1.45,0,0,0,.33.56,1.13,1.13,0,0,0,.17.13l.05,0a3,3,0,0,0,1.5.26h0a.08.08,0,0,0,.08-.08h0a.08.08,0,0,0-.08-.08,2.56,2.56,0,0,1-.66-.21l.25.08.15,0,.49.11h0a.08.08,0,0,0,.09-.05s0,0,0-.05,0,0,0,0a1.33,1.33,0,0,1-.31-.35.58.58,0,0,1-.07-.17,2,2,0,0,1,0-.22v0s0,0,0,0,0,0,0,0a2.05,2.05,0,0,0,1.14-.68.08.08,0,0,0,0-.09h0a.08.08,0,0,0-.07-.05h-.12l-.2,0-.09,0L32.6,23l-.12-.06a1.09,1.09,0,0,1-.29-.22,2,2,0,0,0-.91-.69A1.14,1.14,0,0,0,31,22c-.15,0-.23,0-.3-.1h0a.8.8,0,0,0-.57-.34h-.07a.25.25,0,0,1-.19-.09,5.81,5.81,0,0,1-.55-.63l-.19-.23a5.76,5.76,0,0,0-1.85-1.35,5.66,5.66,0,0,0-1.76-.35l.35-.05a16.26,16.26,0,0,1,1.86,0,4.22,4.22,0,0,0,3.38-1.17.09.09,0,0,0,0-.11c-.05-.05-.12,0-.15,0a6.73,6.73,0,0,1-2,0,12.15,12.15,0,0,0-5,.94l-.35.11a4.17,4.17,0,0,1,.75-.34h0a9,9,0,0,0,1-.67c.28-.25.88-.69,1.35-1a13,13,0,0,0,1.84-1.67,7.37,7.37,0,0,1,1.75-1.37.08.08,0,0,0,0-.15,5.75,5.75,0,0,0-2.51.47l-.22.14a7.1,7.1,0,0,0-1.58,1.17C25.58,15.45,23.37,17.26,22.62,17.82Zm-3.55-.19a2.69,2.69,0,0,0-.64-.22,3.12,3.12,0,0,0,.87-.57C19.22,17.1,19.15,17.36,19.07,17.63Zm.7-4.17a7.73,7.73,0,0,1-.15,2.08,2.63,2.63,0,0,0-.9.06C19,15,19.52,14,19.76,13.46Zm-1.89,2.87a1.84,1.84,0,0,1,1.91-.62,2.32,2.32,0,0,1-1.44,1.56l-.19.09-.22,0a1,1,0,0,0,0-.1h0a.94.94,0,0,0-.14-.26v0l0,0-.08-.09a.89.89,0,0,0-.09-.09C17.68,16.55,17.87,16.34,17.87,16.33Zm-1.61,1.48a.81.81,0,0,1,0-.19h0v-.06a.15.15,0,0,1,0,0,.78.78,0,0,1,.31-.61h0l.06,0h0l.18-.09a.79.79,0,0,1,.24,0h0a.79.79,0,0,1,.22,0l.1,0a.8.8,0,0,1,.21.14l0,0,0,0h0a.76.76,0,0,1,.14.25h0a.79.79,0,0,1,0,.2h0s0,0,0,.06a.23.23,0,0,0,0,.05h0a.8.8,0,0,1,0,.22v0a.8.8,0,0,1-.14.21h0l0,0-.07,0h0a.89.89,0,0,1-.23.13.79.79,0,0,1-.26.05l-.1,0h0a.82.82,0,0,1-.17,0h0a.8.8,0,0,1-.43-.44h0Zm.6-3.16a1.56,1.56,0,0,1,.53,2,1,1,0,0,0-.39-.08h0l-.08,0a.94.94,0,0,0-.35.1A1.72,1.72,0,0,1,16.86,14.65Zm-2.4-1.42c.09.24.22.57.4,1s.46,1.15.64,1.63a2.62,2.62,0,0,0-.8-.18A8.43,8.43,0,0,1,14.46,13.23Zm-.05,2.58h0a2.1,2.1,0,0,1,1.94,1,1,1,0,0,0-.34.72h0a1,1,0,0,0-.48,0A2.93,2.93,0,0,1,14.41,15.82Zm1,1.79h0l0,0-.21-.25Zm-3-1c-1.6-.76-1.79-1.21-2.07-1.9l-.07-.18a7.36,7.36,0,0,1,2.49,1l.37.24.36.23a10,10,0,0,1,1.7,1.75,1.6,1.6,0,0,0-.41.65A9.9,9.9,0,0,0,12.43,16.6Zm3,1.16a.88.88,0,0,1,.39-.09,1,1,0,0,1,.25,0l0,.17v0l0,.13h0a.87.87,0,0,0,.25.25l-.07.14c-.28.54-.47.9-1.7,1C14.9,18.47,15.09,17.94,15.43,17.77Zm.9,1c0,.05,0,.11,0,.17l0-.07Zm.36,2.5h-.31A5.6,5.6,0,0,0,13.17,19c-1-.38-1.29-.48-1.94-.69l-.6-.19a5.66,5.66,0,0,1-2.39-1.08c-.16-.26-.4-.63-.55-.87a8.09,8.09,0,0,0,2,.58,8.63,8.63,0,0,1,1.36.32,16,16,0,0,1,3.62,1.74c-.06.2-.12.42-.18.66a.08.08,0,0,0,.08.1h0a4.48,4.48,0,0,0,.84-.14,1.49,1.49,0,0,1,.32.4c0,.12.05.13.1.14h0a.08.08,0,0,0,.07,0,.11.11,0,0,0,0-.08h0l0-.06a4.15,4.15,0,0,0-.21-.45,1.33,1.33,0,0,0,.52-.37l.15.24a1.75,1.75,0,0,0,.61,1.23,7.55,7.55,0,0,1,.27.8Zm.67,0c-.05-.2-.13-.4-.2-.61l0,0h0a.08.08,0,0,0,.06,0c0-.06.07-.13.11-.19l0,.11A4.1,4.1,0,0,1,17.37,21.28Zm-.14-.75a1.81,1.81,0,0,1-.65-2.14l0,0h0a.7.7,0,0,0,.19,0h.06l.12,0a.87.87,0,0,0,.31-.06l.17-.08,0,0A2,2,0,0,1,17.23,20.53Zm.47-2.16.06.06v.06Zm.4,2.81c0,.05,0,.09,0,.13h-.56a3.74,3.74,0,0,0,0-.67l.07-.46h0a2.14,2.14,0,0,0,.22-1.34h0l0-.26a2,2,0,0,0,.7.38h0A5.32,5.32,0,0,0,18.1,21.17Zm.57-2.41h-.05a2.26,2.26,0,0,1-.89-.6,1,1,0,0,0,.13-.14v0l0-.09h0v0l0-.18s0,0,0-.05v0a.2.2,0,0,0,0-.06.14.14,0,0,0,0,0,2.09,2.09,0,0,1,1.86,1.14A2.31,2.31,0,0,1,18.67,18.76Zm1,2.53h-1a4.69,4.69,0,0,1,.49-2.15l.15-.23a2.08,2.08,0,0,0,.68-.18.08.08,0,0,0,0-.11,2.85,2.85,0,0,0-.27-.41l0-.07a10.3,10.3,0,0,1,3-2.92c-.41,2.28-1,3-1.52,3.45A5.2,5.2,0,0,0,19.62,21.29Zm11,.71h0a.36.36,0,0,0,.17.1h0l.2,0a1,1,0,0,1,.21,0,1.61,1.61,0,0,1,.68.49l.15.15a1.28,1.28,0,0,0,.39.28,1.8,1.8,0,0,0,.55.17,2.15,2.15,0,0,1-.83.5,2,2,0,0,0-.66-1.17l-.07-.07a1.65,1.65,0,0,0-.17-.07,1.47,1.47,0,0,0-.34-.14h0a.08.08,0,0,0-.09,0,.08.08,0,0,0,0,.1,2.49,2.49,0,0,1,.77.63h0l0,.09a.93.93,0,0,1,.06.12,1.73,1.73,0,0,1,.1.5,2.49,2.49,0,0,0,0,.27,1.05,1.05,0,0,0,.24.43,1.76,1.76,0,0,1-1.26-.67.9.9,0,0,1-.12-.28,1.79,1.79,0,0,0-.29-.74.7.7,0,0,0-.14-.15.08.08,0,0,0-.1,0,.08.08,0,0,0,0,.09,2.74,2.74,0,0,1,.14.4l0,.05c0,.13.05.25.07.36l0,.14s0,.08,0,.12a.89.89,0,0,0,.22.38l0,0a1.22,1.22,0,0,0,.23.19c.05,0,.26.13.49.23a1.24,1.24,0,0,1-1.28-.9,3.37,3.37,0,0,1-.13-.83.08.08,0,0,0-.08-.08.07.07,0,0,0-.08.07,2,2,0,0,0,.15,1.36,1.62,1.62,0,0,0,.42.45,2.24,2.24,0,0,1-1.08.48s0-.06,0-.1A2,2,0,0,0,29.55,24c0-.12,0-.23-.07-.34s0-.15,0-.21a.65.65,0,0,1,0-.38l0-.07,0-.09a.34.34,0,0,0,0-.19.51.51,0,0,0,0-.08h0A2.26,2.26,0,0,1,30.64,22Zm.59,2.37-.16-.08a.9.9,0,0,1-.4-.49l0-.07a1,1,0,0,0,.24.39l.1.07A1.39,1.39,0,0,0,31.23,24.37ZM27.6,14l.23-.14A5,5,0,0,1,30,13.44a6.38,6.38,0,0,0-1.57,1.27,13,13,0,0,1-1.8,1.63c-.44.31-1.06.77-1.37,1a8.69,8.69,0,0,1-.93.65,15.87,15.87,0,0,0-2,1l-.36.19a.08.08,0,0,0,.09.13l.06,0h0l.27-.15A12.09,12.09,0,0,1,24,18.57a12.12,12.12,0,0,1,5-.93,9.38,9.38,0,0,0,1.88,0,4.27,4.27,0,0,1-3.07.93,15.43,15.43,0,0,0-1.91,0c-.36.05-.75.13-1,.18l-.1,0a1,1,0,0,0-.32,0,.1.1,0,0,0-.05.11c0,.07,0,.08.39,0h.58a6,6,0,0,1,1.9.35A5.62,5.62,0,0,1,29,20.67l.19.23a5.81,5.81,0,0,0,.57.65.39.39,0,0,0,.29.13h.06a.68.68,0,0,1,.37.18,2.45,2.45,0,0,0-1,.54.31.31,0,0,1,0-.12,1.8,1.8,0,0,1,0-.2.66.66,0,0,0,0-.23.5.5,0,0,0-.17-.24,1.4,1.4,0,0,1-.17-.18A9.16,9.16,0,0,0,27.64,20a4.83,4.83,0,0,0-2.27-.72l-.21,0h-.21a13.25,13.25,0,0,0-3.27.76.08.08,0,0,0,.05.15s2.92-.87,5,.29a4.08,4.08,0,0,1,2,2.6,5.71,5.71,0,0,1,0,1.3,13.12,13.12,0,0,1-1.17-.91,6.78,6.78,0,0,0-3.65-2.76,4.33,4.33,0,0,0-3.35.68l-.67,0a3.38,3.38,0,0,1,.86-1.59l.07-.08a13.12,13.12,0,0,1,1.88-1.69c.68-.5,3-2.36,3.34-2.78A7,7,0,0,1,27.6,14Z"/><path class="cls-7" d="M71.6,1.13V.75H0v.38S0,38,0,44C0,57.92,12.27,72.63,34.53,85.46l1.28.83,1.33-.81C59.39,72.68,71.64,58,71.64,44,71.64,38,71.6,1.13,71.6,1.13Zm-58.91,10,0-1.4-1.56,1L12,8.89l-1.76.67,1.25-1.73-1.41.23,1.57-1.54-1.91.2,1.64-1.3-1.13-.21,1.44-.72L10.45,4l1.65-.5L11,3.07l1.26-.44-.86-.88,3.19-.06-1.06.62,1,.06-.64.88,1-.23-.2.79.7-.41V4l.61-.44.06.66a8.42,8.42,0,0,0-.55,1.08l-.28-.12-.06,0h-.05a.06.06,0,0,0,0,0V9.12a.05.05,0,0,0,0,0,1.85,1.85,0,0,0,1.23.42,2.49,2.49,0,0,1,1.26.25h0V10a1.73,1.73,0,0,0-1-.26h-.29A2.87,2.87,0,0,1,15,9.33V5.42a.05.05,0,0,0-.11,0V9.36a.05.05,0,0,0,0,0h0a3,3,0,0,0,1.53.48h.29a1.64,1.64,0,0,1,1,.27v.16a1.69,1.69,0,0,0-.94-.25h-.28a3.75,3.75,0,0,1-1.71-.59V5.58a.05.05,0,0,0-.11,0V9.51h0v0h0v0h0a3.94,3.94,0,0,0,1.78.62h.29a1.62,1.62,0,0,1,.94.26v.22a2.16,2.16,0,0,0-1.13-.29l-.64-.09a5.41,5.41,0,0,1-1.43-.67V5.77a.05.05,0,1,0-.11,0V9.65a.06.06,0,0,0,0,0,5.6,5.6,0,0,0,1.5.7l.65.09a2,2,0,0,1,1.14.32h0s0,0,0,0a2.73,2.73,0,0,1,1.11-.3A2.88,2.88,0,0,0,21,9.86a.05.05,0,0,0,0,0V5.66a.05.05,0,0,0,0,0,.06.06,0,0,0-.06,0l-.18.11V5.54a.05.05,0,0,0,0,0h-.05l-.17.09V5.38a.05.05,0,0,0,0,0h-.05l-.2.12v0a.05.05,0,0,0,0,0,0,0,0,0,0-.05,0,2.17,2.17,0,0,1-.87.25h-.07a3,3,0,0,0-.7-.09c.11-.29.24-.62.38-.94h0S19,4.51,19,4l.53.33-.07-.79.83.65L20,3.27l1,.45-.65-.94,1,.12-.61-.63,1.13-.21L21,1.67l3.3.07L23,2.56l2,.71-1.74.21,1.8.81-1.45.08,1.76,1-1.82,0,2.37,1.31-1.5-.21.69,1.24-1.63-.8,1.25,2-1.26-.64.62,1.23-1.25-.82.68,2.16L22,9.64l.5,2.06-1.26-1.17L21.12,12l-.9-1.16-.29,1.33-.83-.88-.39,1-.86-.9-.64,1-.56-1-.9.89-.21-1.13-.87.56-.21-.91-.87.72.05-1.15Zm8.09-5.27.16-.1v4a2.77,2.77,0,0,1-2.08.6,2.65,2.65,0,0,0-1.1.28v-.24a1.61,1.61,0,0,1,1-.26H19a2.29,2.29,0,0,0,1.51-.38l.27-.17a.05.05,0,0,0,0,0ZM20.43,9.7c-.3.2-.47.32-1.45.36h-.26a1.71,1.71,0,0,0-.95.24v-.16a1.64,1.64,0,0,1,1.11-.27h.21a2.13,2.13,0,0,0,1.42-.45.06.06,0,0,0,0,0V5.7l.14-.07V9.54Zm0-4h0V9.36a2.09,2.09,0,0,1-1.34.42h-.2a1.71,1.71,0,0,0-1.11.26V9.8a2.53,2.53,0,0,1,1.39-.2h0a1.89,1.89,0,0,0,1.05-.41.05.05,0,0,0,0,0V5.58l.17-.11Zm-.28,3.46a1.81,1.81,0,0,1-1,.36,2.53,2.53,0,0,0-1.41.19V8.28h0a.66.66,0,0,0,.42-.34,1.07,1.07,0,0,0,.16-.84l-.11-.85c0-.06.11-.3.22-.61h0a3.08,3.08,0,0,1,.7.09,2,2,0,0,0,.92-.22Zm-2-2.9a.07.07,0,0,0,0,0l.12.88a1,1,0,0,1-.15.73.51.51,0,0,1-.31.27.15.15,0,0,1-.13,0,.44.44,0,0,1-.09-.27s0-.07,0-.15a.41.41,0,0,1,.23-.08.11.11,0,0,1,.07.05.05.05,0,0,0,.07,0,.05.05,0,0,0,0-.07.22.22,0,0,0-.15-.1.44.44,0,0,0-.28.08l-.08-.23a11.61,11.61,0,0,1-.29-1.74.08.08,0,0,0-.05-.06,2.82,2.82,0,0,0-.54-.07,2.26,2.26,0,0,1-.83-.2A13.19,13.19,0,0,1,16.39,4l.06-.09h0A2.46,2.46,0,0,0,17,2.52l0-.88,1.85,0a3.17,3.17,0,0,0-.13,1,5.83,5.83,0,0,1,.11,1.83l0,0C18.45,5.3,18.13,6.21,18.13,6.22Zm-.57,2s.07,0,.1,0V9.71a2.6,2.6,0,0,0-1.28-.24,1.8,1.8,0,0,1-1.13-.37V5.26a4.61,4.61,0,0,0,1.14.37c.12,0,.55,0,.61,0a10.73,10.73,0,0,0,.29,1.71c.09.25.11.34.12.38h0A.62.62,0,0,0,17.56,8.2Zm-.72-6.64,0,1a2.39,2.39,0,0,1-.5,1.31l0,.05-.06-.73-.58.42V3.06l-.59.34.17-.64-.82.18L15,2.19l-.73,0,1.08-.63h1.59S16.84,1.54,16.84,1.56ZM21.18,2l-.87.16.47.49-.84-.11.5.72-.76-.33.23.76-.7-.54.07.85L19,3.78c0-.27-.05-.63-.12-1.13A2.7,2.7,0,0,1,19,1.57a.07.07,0,0,0,0-.05h1.15ZM35.57,85.22l-.64-.42c-12.51-7.21-21.82-15-27.54-22.86l11.34-6,16.83,9.54Zm0-28.41L18.74,47.27,3.46,55.37A26.69,26.69,0,0,1,.77,44c0-1.25,0-3.82,0-7.1h34.8Zm0-20.42H.77C.78,24.63.8,4.53.8,1.52H13l-2,0,1,1-1.45.51,1.05.45L9.8,4l1.41.5L9.66,5.3l1.29.24L9.11,7l2-.21L9.52,8.36l1.55-.25L9.71,10l1.91-.73-1,2,1.84-1.16,0,1.45.93-.72L13.36,12l1-.81.2.87.86-.56.23,1.21,1-1,.59,1.1.69-1.07.91.94.39-1,.87.92.28-1.29.94,1.22L21.44,11,22.9,12.3l-.52-2.13,1.51,1.21-.71-2.26,1.4.92L23.9,8.69l1.36.69L24,7.37l1.57.77-.8-1.45,2.18.3L24.31,5.55l1.81,0-1.84-1,1.58-.09L24,3.59l1.87-.23-2.4-.86,1.56-1-1.9,0H35.57Zm35.3,0H36.12V15.27H70.85C70.86,22.23,70.87,30.39,70.87,36.38ZM42,1.52h5.44V15H42Zm17.31,0h5.64V15H59.28Zm-5.77,0H59V15H53.51Zm-5.79,0H53.2V15H47.72ZM65.23,15V1.52h5.61c0,1.46,0,6.89,0,13.45ZM41.67,1.52V15H36.12V1.52Zm-4.91,83.3-.63.38V36.94H70.87c0,3.28,0,5.85,0,7.1C70.88,62.45,49.5,77.49,36.75,84.81Z"/></svg>